<svg xmlns="http://www.w3.org/2000/svg" viewBox="0 0 30.04 30.04"><path d="M5.01 13.05c.3-.43.35-.9.3-1.33-.4 0-1.15-.1-1.02-.74a.9.9 0 00.97.4l-.03-.15a8.28 8.28 0 01-.4-3.47c-.87-.24-3.17-1.24.29-4.73C9.27-1.17 17.1-.7 20.1 2.56c3 3.25 1.2 7.74 1.2 7.74s.68-.9.98.39c4.36-1.16 4.66 5.6 4.32 6.46-.34.86 1.02 10.54-.81 10.92-1.36.28-3.87-5.5-4.96-9.72-1.5 1.8-2.51 3.95-2.08 4.58.47.68 6.75 7.11 6.75 7.11l-15.1-.47 1.45-1.67c.58-.66-1.08-4.17-1.45-5.6-.39-2.08-3.34-.3-4.8-.73-1.45-.43-.46-2.38-.46-2.38s-.43-.21-.48-.71c-.05-.5.97-.88.97-.88s-1.06.2-1.21-.34c-.11-.4.42-.91.42-.91v-.33S3.17 15.87 3.5 15c.22-.62.9-1.04 1.51-1.96z"/></svg>