<svg xmlns="http://www.w3.org/2000/svg" viewBox="0 0 60.44 38.73"><path d="M37.78 8.2c-1.4.4-2.94 1.29-2.95 3.31 0 0 2.44-2 4.83-1.86l2.22 5s.13.2 0 .28c0 0-.13.14-.34-.15 0 0-1.04-1.17-3.1-1.18 0 0-.86-.07-2 .88 0 0-2.62 2.38-4.85 2.3 0 0-2.7.27-5.34-1.36 0 0-1.47-.85-3.14-2.6 0 0-1.72-1.9-3.1-1.57 0 0 .43-1.83 2.7-2.13 0 0 .7-.06 1.34.53 0 0 .86.95 2.54.5 0 0 1.21-.25 2.58-1.35 0 0 2.65-2.32 5.62-2.35V0h-8.24v8.2h-8.23v8.27h8.23v8.2h8.24v-8.2h8.22V8.2h-5.23zm13.4 28.6H48.9c-.2.02-.7-.01-.94-.23-.05-.06-.2-.2-.2-.69V30.8h-1.9v5.02c-.04 1.1.4 1.77.8 2.13.85.82 2.08.79 2.39.77h4.03V30.8h-1.92v6zm-39.75 1.92h1.92V28.04h-1.92v10.68zm11.6-7.62a2.74 2.74 0 00-.8-2.08c-1.13-1.11-3.02-1.08-3.35-1.06h-4.46v10.76h1.92v-8.84l2.6-.02c2.27-.1 2.18 1.32 2.18 1.32 0 .13-.09 1.35-1.81 1.48l-1.35.06 3.2 6h2.14l-2.41-4.7c1.74-.75 2.18-2.15 2.13-2.92zm37.41 1.28v-1.93h-3.03a3.55 3.55 0 00-2.37.82 4.57 4.57 0 00-1.43 3.22v.09c0 1.38.78 4.04 3.76 4.14h3.07V36.8h-3.03a1.74 1.74 0 01-1.7-1.28h4.69v-1.9h-4.68c.43-1.24 1.38-1.27 1.6-1.26l.07.02h3.05z"/><path d="M24.35 31.27a4.52 4.52 0 00-1.46 3.22v.09c.01 1.38.8 4.04 3.76 4.14h3.08V36.8H26.7a1.75 1.75 0 01-1.71-1.28h4.7v-1.9H25c.44-1.24 1.38-1.26 1.6-1.26l.07.02h3.05v-1.92h-3.01a3.49 3.49 0 00-2.37.8zm15.44 0a4.45 4.45 0 00-1.43 3.22l-.02.09c0 1.38.79 4.04 3.75 4.14h3.08V36.8h-3.03c-1.7-.06-1.87-1.75-1.88-2.2.19-2.21 1.53-2.25 1.8-2.24l.05.02h3.06v-1.92h-3.01a3.49 3.49 0 00-2.37.8zm-2.59 2.92c-.28-.3-.8-.65-1.64-.64H32.8c-.06.01-.17 0-.23-.04-.08-.08-.13-.31-.13-.45V33v-.05c-.02-.1-.03-.3.04-.38.1-.11.3-.16.41-.17h4.6v-1.92H32.8c-.1.01-1.1.07-1.75.83-.29.33-.6.9-.53 1.8.01.25.08 1.14.72 1.77.3.28.82.62 1.63.6h2.71c.14-.02.22 0 .26.04.1.1.15.4.15.57v.09c.01.22.03.6-.43.62H30.6v1.92h4.98c.11-.01 1.04-.04 1.7-.75.3-.32.64-.89.63-1.8 0-.14.02-1.23-.7-1.98zM4.46 28.13L0 38.72h1.75l3.61-8.14 1.52 3.53H4.14l.9 1.9h2.71l1.43 2.71h1.76L6.19 28.11l-1.73.02z"/></svg>