<svg xmlns="http://www.w3.org/2000/svg" viewBox="0 0 192.76 192.76"><g fill-rule="evenodd" clip-rule="evenodd"><path fill="#fff" d="M0 0h192.76v192.76H0V0z"/><path d="M32.63 77.06s-4.53-3.2-8.49-1.32C20.18 77.63 5.1 86.87 8.68 93.84c0 0 6.03 1.52 18.3 0 0 0-16.98 1.7-13.96 15.85l.18.56-3.58 1.89-6.79-.95.2 3.77 2.82 2.65 9.62-4.53s11.88 8.86 38.46-11.7c0 0-6.79-.93-15.08 4.35 0 0-12.26 6.97-15.84 2.64l9.8-6.6 11.7-4.53h-3.4l23.2-12.44s-14.15 1.13-26.97 10.56l-16.22 10s-1.88-5.48 10.19-9.63c0 0 5.28-2.64 6.6-5.09l-2.27-3.77s-16.4 7.17-18.29 2.83c0 0-1.7-5.28 15.28-12.64 0 0-16.97 7.36 0 0z"/><path d="M47.59 77.2c.35.41.41.83.25 1.15-1.23 2.33-4.12 4.41-6.73 3.43-.9-1.58-2.05-3-2.26-4.9 1.78-1.95 4.78-1.57 7.16-1.44.27.02.47.5.78.65.2.1.6-.05.67.07.19.28-.06.81.13 1.04 0 0-.2-.23 0 0zm81.96 10.05h23.76c4.71 0 4.34 5.65 4.34 5.65v.2s.37 6.03-4.34 6.03c4.71 0 4.34 6.03 4.34 6.03v.19s.37 5.65-4.34 5.65h-23.76V87.25z"/><path d="M137.7 92.15h10.96c.59 0 1.07.48 1.07 1.07v2.57a1.07 1.07 0 01-1.07 1.07H137.7v-4.71zm0 14.14h10.96c.59 0 1.07-.48 1.07-1.07v-2.57c0-.6-.48-1.07-1.07-1.07H137.7v4.71z" fill="#fff"/><path d="M99.98 87.25H75.62c-4.71 0-4.34 5.65-4.34 5.65v.2s-.37 6.03 4.34 6.03c-4.71 0-4.34 6.03-4.34 6.03v.19s-.37 5.65 4.34 5.65h24.36v-4.71h-19.7a1.07 1.07 0 01-1.08-1.07v-2.57c0-.6.48-1.07 1.07-1.07h19.7v-4.72h-19.7a1.07 1.07 0 01-1.07-1.07v-2.57c0-.6.48-1.07 1.07-1.07h19.7v-4.9zm89.94 0h-24.35c-4.72 0-4.34 5.65-4.34 5.65v.2s-.38 6.03 4.33 6.03c-4.7 0-4.33 6.03-4.33 6.03v.19s-.38 5.65 4.33 5.65h24.36v-4.71h-19.7c-.6 0-1.07-.48-1.07-1.07v-2.57c0-.6.48-1.07 1.07-1.07h19.7v-4.72h-19.7c-.6 0-1.07-.48-1.07-1.07v-2.57c0-.6.48-1.07 1.07-1.07h19.7v-4.9zM103.52 111V87.25h7.08v19.04h16.5v4.72h-23.57z"/></g></svg>