<svg xmlns="http://www.w3.org/2000/svg" viewBox="0 0 192.76 192.76"><g fill-rule="evenodd" clip-rule="evenodd"><path fill="#fff" d="M0 0h192.76v192.76H0V0z"/><path d="M99.94 89.68l.4.01c.7-1 1.88-1.3 2.52-2.15a22.45 22.45 0 014.55-4.2c.28-.37.54-.77.81-1.14.53-.38 1.14-.4 1.72-.74.82-.52 1.42-1.63 2.27-2.17.54-.34 1.2-.39 1.72-.74l.94-1.01 1.18-.37c.28-.26.23-.8.54-1.02.58-.43 1.62-.37 2.12-.87.3-.3.17-.92.54-1.16.55-.35 1.46-.15 1.98-.47l1.07-1.02 1.05-.11c.65-.23 1.31-.9 1.86-1.26 1.26-.77 2.56-.8 4.1-1.33.67-.24 1.51-.87 2.24-1.12 1.66-.59 4.44-.11 6.53-.1 1.01 0 1.89-.3 2.87-.07l2.63-.07c2.72.87 4.24 2.27 6.18 3.8a6.98 6.98 0 002.31 1.22c.53-.65 1.77 1.02 2.47 1.23.45.73 1.3 1.66 1.51 2.52.34 1.29-.38 2.44-.72 3.1-1.13 2.26-4.37 3.54-6.65 4.67-2.06 1.02-3.52 2.76-6.6 2.7-.8-.78-1.64-1.32-1.63-2.9.35-.3.7-.6.8-1.14.25-.43 1.48-.88-.17-1.23-.13-.23-1.6-1.9-1.57-2.2-1.48-.39-1.64-1.74-3.1-2.03-1.22-.27-1.73.98-2.38 1.37-.48.16-.96.34-1.45.49-1.1.66-2 1.2-3.56 1.47-.44 1.78-1.16 1.25-2.66 1.9l-1.6 1.26c-.48.46-.54 1.56-1.09 1.93-.47.32-1.01.25-1.58.49-.66.27-1.28.92-1.85 1.25l-.93.24c-.6.41-.66 1.46-1.1 2.06-.56.8-1.66 1.13-2.26 1.9-.53.7-.8 1.53-1.36 2.19-.29.35-1.03.29-1.32.62-.28.3-.2.96-.42 1.3l-.67.62c-.32.5-.19.92-.43 1.56-.17.44-.68.92-.82 1.41-.22.8.22 1.93.34 2.61 1.1.35.8 1.24 1.51 1.87 1.23.98 3.36.82 4.95 1.15l1.44-.09c.42.14.59.66.9.8.88.39 1.9-.77 3.15-.31.2.07.43.46.63.53l1.18.03c.92.25 2.75.85 3.9.6.44-.08.89-.22 1.58-.22 1.19.04 2.05.58 3.14.34.61-.14 4.88-.48 5.75-.13.15.07.45.47.63.54.7.28 1.71.4 2.35.57.57.03 1.14.04 1.7.05.27.07.65.46.9.55l1.83.03c.1.05.4.35.51.4 1.1.48 2.09.5 2.99 1.12l1.01 1.2 1.17.54c.4.48.37 1.07.61 1.71.45 1.18 1.83 4.62 1.29 6.42-.37 1.22-.95 2.47-1.02 4.14.45.16.49.39.78.67 0 .81.03 1.87-.32 2.33-.28.7-3.17 3.36-3.9 4.09-.3.21-.6.42-.92.62-.29.57.01 1.12-.3 1.56-.75 1.06-2.54 1.6-3.59 2.39l-.68 1.03c-.76.57-1.71.82-2.51 1.38-.66.46-1.09 1.34-1.74 1.78-.4.25-.9.22-1.32.49-.47.29-.78.91-1.33 1.14-.64.26-1.3.14-1.84.47l-.94.9-.92.1c-.17.22-.35.44-.54.64-.69.44-1.79.28-2.5.73-.7.43-1.4 1.22-2.12 1.64l-1.84.48c-.79.49-.88 1.82-1.76 2.18-.72.55-2.02-.07-3.01.31-.42.16-.65.72-1.07.9-.73.27-1.3.06-2.1.33-.68.23-1.73.76-2.51.98l-1.17.1c-.87.32-1.92 1.64-3.06 2.02l-1.44.1c-.54.17-1.11.68-1.72.86-1.84.56-3.83.66-5.65 1.05l-1.7-.05c-.38.11-.97.52-1.45.63-1.05.23-3.08-.01-3.92-.22l-3.9-.23c-1.47-.37-3.14-.7-4.44-1.02-.23-.4-.55-.98-.88-1.33 0-1.4.44-1.89.73-2.97.82-.47 1.52-1.17 2.25-1.65.35-.1.7-.24 1.05-.36.28-.23.38-.7.69-.89l1.32-.37c.53-.33.88-1.03 1.6-1.26 1.57-.48 3.82.03 5.36-.53.4-.13.71-.68 1.08-.88.54-.33 1.1-.3 1.7-.62.47-.23.82-.81 1.33-1l.92-.12c.47-.24 1.43-1.05 2-1.37 1.06-.63 2.5-.67 3.56-1.22.54-.3.91-1.08 1.33-1.54.42-.44.84-.33.95-1.15h-.26c-.72-.61-1.55.37-2.35-.2-.05 0-2.43-1.99-2.44-2-.35-.56-.3-1.3-.62-1.84-.17-.3-.62-.6-.75-.93-.26-.66-.15-1.17-.48-1.71l-1.54-1.6a33.3 33.3 0 00-.1-1.17c-.15-.5-.51-.93-.75-1.32l-.26-.01c0 .86-.19 1.48-.7 1.81-1.76 1.2-2.63-1.66-3.21-2.55l-1.41-1.34c-.33-.5-.11-.9-.35-1.57-.13-.35-.62-.59-.76-.93-.37-.88-.3-1.56-.74-2.36-.52-.98-1.52-2-2.01-3.04-.23-.47-.12-.91-.37-1.32-.55-.95-1.46-1.67-1.9-2.78-.44-1.12-.4-2.24-.97-3.28-.45-.87-1.49-1.56-2.16-2.27-.49-.5-.72-1.27-1.53-1.47-.13.23-.47.54-.54.78-.26.7.04 1.3-.3 1.8-.45.65-1.47 1-1.88 1.67l-.01.38c-.23.39-.76.7-.95 1.15l-.14 1.17-.54.38c-.37.5-.46 1.16-.83 1.68-.4.56-1.13 1.18-1.47 1.79a35.61 35.61 0 00-.15.9c-.26.5-.87.52-1.2.9-.31.31-.3 1.05-.56 1.4-.72 1-1.74 1.94-2.42 2.95-.75 1.11-.88 2.52-1.66 3.6l-.93.76c-.19.3-.1.52-.27.78l-.94.76c-.29.53-.12 1.1-.43 1.55l-.93.89c-.31.74-.17 1.36-.57 1.94-.46.38-.89.76-1.34 1.15-.41.54-.43 1.32-.82 1.93-.83 1.28-2.2 2.72-2.85 4.1l-.01.65c-.22.62-.7 1.46-1.1 2.06-.55.85-1.6 1.9-2.02 2.81l-.15 1.17c-.27.45-1.04.63-1.34 1.02-.55.72-.46 1.85-.98 2.58l-.93.89-1.39 3.09-.93.9c-.05.46-.1.95-.17 1.42l-1.2 1.15c-.42.7-.3 1.54-.7 2.2-.6.93-1.3 2.13-1.9 3.08-.32.5-.35 1.07-.69 1.54l-.8.64c-.9 1.46-1.23 3.12-2.2 4.51-.42.6-1.24 1.2-1.6 1.78l-.16.65-.8.64c-.2.34-.03.66-.28.9-.2.19-.55.06-.8.23-.27.22-.3.9-.54 1.18-.49.56-1.48.86-1.86 1.51-.67 1.14-.75 2.17-1.26 3.5-.23.57-.8 1.13-1.09 1.66-.37.65-.32 1.53-1.09 1.79-.53.36-1.69.24-2.35.08l-.25-.4c-.84-1.11.82-4.6 1.06-5.83-.58-.1-.99-.18-1.17-.68-.81-.93.88-4.02 1.3-4.8.18-.36.2-1.07.42-1.55.26-.56.85-1.02 1.08-1.66.25-.68.1-1.39.44-1.95.77-1.3 1.85-2.88 2.58-4.24l.3-1.17c.22-.4.73-.83.94-1.27.18-.62.37-1.21.57-1.81.54-.9 1.35-1.94 1.76-2.96.24-.58.12-1.09.43-1.55.73-1.16 1.89-2.56 2.44-3.86.56-1.3.9-2.47 1.65-3.6.88-1.34 2.14-2.8 2.85-4.23.64-1.27.98-2.74 1.79-3.87.47-.65 1.15-1.34 1.61-2.05.33-.68.65-1.37.96-2.06.24-.16.45-.33.68-.5.28-.5.14-1 .43-1.43 1.7-2.63 3.23-5.68 5.03-8.22.22-.64.46-1.29.7-1.93.5-.78 1.25-1.7 1.75-2.44l.56-1.68 1.21-1.15c.54-.76.56-1.8 1.1-2.58.44-.61 1.38-1.44 1.75-2.17.33-.62.24-1.1.56-1.68.81-1.44 2.25-2.9 2.6-4.77-.66-.4-1.14-1.86-.46-2.74.4-1.06 1.83-2.53 2.44-3.46 1.08-1.64 1.62-3.53 2.72-5.14.58-.83 2.67-1.02 2.92-1.5.07-.08.4-.56.4-.63l.02-.4a15.17 15.17 0 01-.4-.4l.2-1.96-1.14-1.84-.23-1.57c-.28-.62-1.14-1.73-1.51-2.38-.43-.75-.34-1.52-.73-2.36l-.38-.27c-.3-.5-.3-1.09-.62-1.58l-1.41-1.2-.24-1.18c-.24-.52-.88-1-1.14-1.6-.49-1.19-.6-2.46-1.22-3.54-.38-.66-1.13-1.19-1.53-1.87-.43-.72-.27-1.88-.72-2.61l-.89-.94c-.26-.4-.17-.83-.36-1.3-.27-.64-.87-1.21-1.13-1.86-.46-1.11-.75-2.24-1.37-3.29-.45-.75-1.16-1.66-1.51-2.5-.26-.64-.29-1.15-.61-1.72-.1-.18-.44-.44-.5-.66-.2-.6.1-1.16-.24-1.57a5.24 5.24 0 01-.38-.15c-.26-.25-.59-.87-.76-1.17l-.37-1.2c-.17-.28-.5-.54-.62-.93a73.67 73.67 0 01-.11-.9c-.38-.74-1.2-1.54-1.51-2.38l-.23-1.31c-.18-.33-.62-.72-.77-1.06l.01-.52c-.24-.4-.98-.26-1.15-.81-.3-.95.57-2.13 1.1-2.33.9-.67 2.65-.38 3.93-.42.18-1.88.82-1.03 2-1.52l.4-.5c.73-.45 1.73-.71 2.77-.72.73-.02 1.57-.51 2.21-.08.62.24.99.88 1.55 1.2.47.27 1.23-.05 1.83.18.58.22.73 1.05 1.13 1.46.31.3.82.28 1.17.55v.13c.3.27.15.4.37.78l1.66 1.48c.47.77.53 2.73.98 3.4.26.41 1.11.51 1.41.95.24.36.13.9.36 1.32.35.66 1.01 1.2 1.4 1.85.46.81.54 1.8.98 2.64.42.79 1.18 1.74 1.65 2.5l.35 1.46c.22.42.85.79 1.01 1.32l-.02.77c.13.38.6.82.76 1.2l.11.78c.48 1.21 1.38 2.41 2.01 3.44.52.85.58 1.92.98 2.9.27.63.9 1.1 1 1.97l-.3 1.69c.8.45.62 1.27 1.8 1.34.36-.43.68-.47.81-1.15-1.83-.99.25-3.86.9-4.81a92.4 92.4 0 007.78-13.89c.53-1.14 1.6-2.4 2.3-3.45.4-.6.34-1.3.7-1.95.26-.46.84-.87 1.08-1.4.22-.48.06-.9.3-1.44.14-.34.6-.36.8-.62.22-.32.1-.69.29-1.04.16-.34.64-.67.8-1.02.23-.53.07-.9.29-1.43.4-.97 1.38-1.92 1.77-2.82l.44-1.82.66-.63c.53-1.1.63-2.08 1.25-3.1.95-1.54 2.06-2.7 3.23-3.96.6-.65.41-2.05.85-2.85.47-.86 1.4-1.57 1.9-2.43l.15-1.3c.14-.35.66-.67.81-1.02.37-.85.33-1.55.83-2.2l.67-.37.43-1.43c1.26-2.07 2.39-4.65 4.44-5.88.68-.4 1.77.16 2.63-.2.46-.2.78-.93 1.33-1.15.56-.22 1.04 0 1.7-.22.57-.18.96-.83 1.6-1 1.63-.43 5.2.05 6.66.41l.62.93c.01 3.1-1.1 4.11-1.96 6.08-.46 1.03-.47 2.24-1.13 3.11-.23.3-.78.23-1.05.49-.49.47-.53 1.43-.84 2.07-.23.51-.76.73-1.06 1.14-.42.54-.9 1.7-1.1 2.32a72.56 72.56 0 00-.18 1.69c-.4.3-.8.6-1.2.88-.53.83-.5 1.89-.98 2.71-.23.43-.85.7-1.07 1.15-.26.55-.12 1.23-.42 1.69l-.67.5c-.68.87-1.58 2.08-2.04 3.08a63.97 63.97 0 01-.17 1.7c-.18.46-.89.67-1.07 1.14l-.16 1.56-1.21 1.14c-.2.52-.37 1.04-.56 1.55-.24.3-.86.4-1.07.76l-.15.9c-.26.5-1.22 1.8-1.62 2.31l-1.07.9-.15.65-.79.75-.02.65c-.15.3-.61.4-.8.63-.24.33-.84 1.73-.96 2.07l-.16 1.43-.94.89-.42 1.16c-.25.4-.73.82-.95 1.28l-.14.78c-.43.76-1.42 1.4-1.88 2.17-.38.63-.16 1.74-.58 2.33l-1.06.88-.42 1.04c-.32.44-1 .7-1.34 1.14-.53.72-.58 1.72-.97 2.59-.44.94-1.34 1.65-1.77 2.56a21.78 21.78 0 00-1.1 2.84c-.18.58-.01 1-.3 1.43l-1.6 1.13-.16 1.56c-.3.67-1.18.95-1.48 1.53-.4.76-.23 1.57-.58 2.33-.28.64-.97 1.11-1.34 1.66-.38 1.08-.76 2.15-1.12 3.24-.2.8.34 1.15.33 2.08zm16.42 24.76c.27-.1.57-.55.8-.64.95-.36 1.9.44 2.47.59l4.05-.04c.41.16.74.66 1.29.81 1.26.34 1.81-.87 3.01-.44.14.12.26.26.39.39.4.24 1.25.44 1.69.56l2.6.32.77.8c.96.37 2.08-.04 2.87.47.7.45 1.42 1.4 2.04 2-.58 3.98-3.69 6.3-6.47 8.05-.36.43-.7.86-1.07 1.28-.66.38-1.27.31-1.72.87-.34.43-.63 1.23-1.08 1.54l-1.19.36c-.31.16-.6.63-.93.77l-1.18.09c-.92.3-1.2 1.12-1.87 1.66a25.5 25.5 0 00-1.32.36l-.8.76c-1.05.65-2.06.8-2.91 1.62-.36 0-.6-.01-.79-.14-.66-.98-.05-2.18-.44-3.4-.1-.34-.63-.65-.76-.93l.02-.78c-.07-.29-.43-.68-.5-.93l.02-1.04c-.25-.83-1.06-1.77-1.38-2.51-.51-1.2-.59-2.15-1.23-3.15l-.77-.8-.1-1.32c-.19-.56-.82-1.14-1-1.7l-.08-2.49c-.27-.83-1.05-1.4-1.12-2.5 2.45.06 4.83.17 6.68-.5z"/></g></svg>