<svg xmlns="http://www.w3.org/2000/svg" viewBox="0 0 192.76 192.76"><g fill-rule="evenodd" clip-rule="evenodd"><path fill="#fff" d="M0 0h192.76v192.76H0V0z"/><path d="M71.43 88.36a2.44 2.44 0 01-.36.33c-.89.7-1.76 1.5-2.67 2.5l-2.39 2.7c-4.44 5.12-8.64 9.95-16.34 10.77-1.43.18-4.45.19-5.33.12-.5-.04-.89-.1-1.2-.22-.77-.3-1.15-.9-1.11-1.81.02-.52.23-1.32.31-1.66l.01-.04 1.42-5.94 1.18-4.96c.19-.72.41-1.3.7-1.77l.02-.04.1-.14c.06-.1.12-.2.42-.2H52.21c.28 0 .49.09.35.4a3.07 3.07 0 01-.14.29l-.1.22a11.86 11.86 0 00-.95 2.68l-2 8.43c-.07.29-.12.56.02.83v.02c.3.5.81.43 1.18.34 2.45-.62 5.41-2.94 8.8-6.88a110.2 110.2 0 013.52-4.07l.28-.3a14.98 14.98 0 011.86-1.79l.06-.04c.12-.1.16-.13.55-.13h5.68c.16.02.27.15.11.36zM37.87 104.5a18.71 18.71 0 001.05-3.14l2.26-9.47.23-1.07a4.34 4.34 0 00.07-.71c0-.26-.04-.49-.12-.72-.12-.38-.42-.9-1.15-1.18a4.57 4.57 0 00-1.45-.25l-1.21-.03-1.66.01c-2.25.06-4.24.23-5.6.5-1.58.3-2.93.74-4.27 1.4-3.64 1.87-5.9 4.58-8.1 7.44a.91.91 0 01-.81.4h-2.25c-.36 0-.44.01-.52.05a1.44 1.44 0 00-.27.23l-2.38 2.25-.1.1c-.13.11-.24.23-.32.32-.08.1-.15.36.17.37a2 2 0 00.16 0h1.46c.39.02.65.04.87.33.18.25.2.58.06.84-.1.16-.18.28-.33.44l-.96 1.06-.17.18c-.15.17-.35.36-.47.53-.07.1-.18.4.18.4H18.5c.4 0 .4 0 .7-.36.73-.85 1.39-1.8 1.94-2.63l.01-.02c.1-.14.24-.35.47-.48.2-.1.4-.1.57-.1h8.98c.23 0 .48.04.69.25.15.14.36.45.12 1.11a27.07 27.07 0 01-.64 1.57c-.05.1-.1.2-.13.31-.03.12-.03.31.19.34l.27.01h5.71c.19-.01.35 0 .5-.28zM34.44 92.5l-1.1 4.62c-.04.16-.14.57-.7.58h-6.81c-.27 0-.46-.01-.63-.09a.75.75 0 01-.47-.69c0-.26.12-.54.36-.86 1.18-1.5 2.34-2.6 3.57-3.36 1.32-.8 3.26-1.47 5.04-1.55.11 0 .21 0 .3.02a.71.71 0 01.5.41c.07.18.06.38-.07.92zm61.17-4.47c.22.02.32.16.18.43a3 3 0 01-.17.29 13.2 13.2 0 00-.92 1.66l-.1.22-.12.23c-.09.16-.19.18-.31.2H84.13c-1.1 0-2.18.03-2.73.16a2.25 2.25 0 00-.81.37c-.24.19-.6.58-.83 1.23-.05.14-.1.28-.13.44-.04.25 0 .8.48 1.03.2.08.43.1.77.1l.34.01h11.86c.09 0 .27 0 .41.02.1 0 .26.06.24.25a1.54 1.54 0 01-.1.36l-.75 1.96c-.18.5-.22.5-.66.5H78.68c-.1 0-.24 0-.39.06a.65.65 0 00-.34.31l-.12.31-.54 1.7v.03c-.07.22-.22.73.07 1.15.19.27.51.42.96.44l.95.03c1.77.03 9.6.03 12.97-.01h.41l.3.01c.09.02.22.09.14.33a4 4 0 01-.16.42l-.97 2.24a1.45 1.45 0 01-.06.1c-.07.14-.13.16-.31.17l-.4.01c-5.63.03-13.8.04-15.55.01-1.44 0-2.21-.02-2.97-.17-1.2-.24-2.04-.75-2.52-1.52a3.18 3.18 0 01-.45-1.7c0-.74.19-1.42.3-1.86l.26-.87c.1-.34.16-.7-.15-1.02l-.01-.01c-.25-.23-.54-.23-.82-.23h-2c-.17 0-.31 0-.42-.02-.24-.05-.16-.3-.07-.39.1-.13.2-.23.25-.27l1.98-2.07.02-.01c.25-.26.25-.26.6-.26h1.51c.3 0 1-.01 1.1-.75l.01-.23.01-.17c.03-.38.12-.75.29-1.15a6.34 6.34 0 014.05-3.7c.97-.27 1.92-.37 3.77-.39H95.23a2.8 2.8 0 01.38.02zm50.92.28c.08-.23-.07-.3-.3-.3h-14.64c-.78 0-1.68 0-2.45.1a4.11 4.11 0 00-2.14.77 2.86 2.86 0 00-1.15 2.28c0 .61.2 1.24.58 1.81.32.49.87 1.05 2.06 1.9l2.31 1.7c1.45 1.02 2.94 2.08 3.86 2.8.2.15.58.45.78.73.13.19.18.37.18.54a.76.76 0 01-.3.6 1.38 1.38 0 01-.6.26c-.72.13-2.11.14-2.78.15h-10.43c-.18 0-.24.07-.29.15l-.1.22-.03.1a17.91 17.91 0 01-.9 1.97l-.03.06c-.06.12-.18.35-.18.48 0 .06.02.12.08.14.09.03.2.03.37.03h16.54l2.08-.03a6.27 6.27 0 003.15-.77h.02v-.01a3.43 3.43 0 001.53-2.77v-.14a3.46 3.46 0 00-1.03-2.45 12.58 12.58 0 00-1.96-1.77 57.25 57.25 0 00-3.4-2.34l-1.11-.74-.13-.09c-.57-.38-1.1-.74-1.64-1.13-.4-.3-.49-.58-.5-.79 0-.18.07-.35.18-.5.22-.26.53-.3.78-.32l1.15-.02h9.05c.1-.02.18-.03.26-.16.07-.12.13-.28.15-.34a18.68 18.68 0 01.75-1.62c.13-.26.19-.4.22-.5zm6.14 16.23a3.49 3.49 0 00.07-.13c.5-1 .86-2.32 1.2-3.71l2.08-8.73c.37-1.45.65-2.26 1.1-3.18l.02-.02c.07-.14.18-.36.22-.49.06-.19-.03-.25-.15-.27a1.53 1.53 0 00-.22 0H150.52c-.21.01-.26.08-.33.2l-.1.19-.02.03c-.26.57-.6 1.35-.95 2.82l-2.3 9.73a17.26 17.26 0 01-1.12 3.11c-.14.3-.17.44-.17.51v.02a.17.17 0 00.1.13c.07.04.16.05.39.05h6.13c.2 0 .37 0 .52-.26zm2.52.25H171.97l2.09-.02a6.27 6.27 0 003.15-.77h.01l.01-.02a3.43 3.43 0 001.53-2.76v-.14a3.47 3.47 0 00-1.04-2.46 12.58 12.58 0 00-1.95-1.76 56.6 56.6 0 00-3.4-2.34l-1.11-.74-.13-.09c-.57-.38-1.11-.74-1.65-1.14-.39-.3-.48-.57-.48-.78 0-.18.06-.35.17-.5.22-.26.53-.3.78-.32l1.14-.02h8.78c.27 0 .46.03.63-.35l.06-.15c.21-.53.47-1.1.75-1.63l.03-.05.15-.3c.17-.36-.02-.45-.26-.45H166.6c-.78 0-1.68.01-2.45.1a4.11 4.11 0 00-2.14.77 2.86 2.86 0 00-1.15 2.29c0 .61.2 1.24.58 1.81.31.48.87 1.05 2.06 1.9l2.3 1.7c1.46 1.01 2.95 2.08 3.87 2.8.2.15.58.44.78.73a.93.93 0 01.18.53.77.77 0 01-.3.61 1.35 1.35 0 01-.6.25c-.73.13-2.11.15-2.78.15H156.5c-.22.02-.27.12-.33.28l-.07.2a18.27 18.27 0 01-.9 1.97l-.03.06a2.36 2.36 0 00-.15.33c-.04.1-.08.29.17.31zm-32.08-16.5a3.23 3.23 0 01-.24.6 16.54 16.54 0 00-1.06 2.66l-2.75 9.36-.09.28a8.32 8.32 0 01-.79 1.85 3.65 3.65 0 01-1.44 1.43h-.02a3.51 3.51 0 01-2.06.28h-.01a4.02 4.02 0 01-1.65-.72c-.51-.38-.99-.84-1.5-1.35l-.38-.38-.02-.02c-.7-.72-2.78-2.73-4.61-4.5l-1.87-1.82-.2-.19c-.12-.12-.36-.33-.7-.3h-.03c-.3.05-.52.26-.64.62l-.15.5-.04.1c0 .05-1.22 4.32-1.22 4.33l-.1.36c-.24.82-.5 1.75-1.16 2.93-.26.48-.3.48-.64.49H95a3.82 3.82 0 01-.32-.02c-.26-.02-.25-.19-.22-.27.06-.19.18-.42.27-.6a17.58 17.58 0 001.32-3.31c.58-1.99 1.33-4.7 1.88-6.67l.66-2.36c.34-1.1.8-2.23 1.92-2.96.78-.5 1.9-.7 2.99-.54a4.45 4.45 0 011.9.8c.56.38 1.13.93 1.88 1.65l1 .96c1.82 1.72 4.08 3.87 5.25 4.92.3.25.58.27.75.23a.8.8 0 00.56-.43c.07-.12.13-.33.22-.64l.02-.05.53-1.82.62-2.11c.52-1.78.78-2.33 1.2-3.07l.02-.03c.23-.38.27-.48.84-.48h4.31c.15 0 .26 0 .34.02.1.03.23.07.18.28z"/></g></svg>