<?xml version="1.0" standalone="no"?>
<!DOCTYPE svg PUBLIC "-//W3C//DTD SVG 20010904//EN"
 "http://www.w3.org/TR/2001/REC-SVG-20010904/DTD/svg10.dtd">
<svg version="1.0" xmlns="http://www.w3.org/2000/svg"
 width="77.000000pt" height="77.000000pt" viewBox="0 0 77.000000 77.000000"
 preserveAspectRatio="xMidYMid meet">
<metadata>
Created by potrace 1.11, written by Peter Selinger 2001-2013
</metadata>
<g transform="translate(0.000000,77.000000) scale(0.100000,-0.100000)"
fill="#000000" stroke="none">
<path d="M572 745 c-88 -25 -185 -83 -217 -131 -56 -86 -34 -121 103 -164 104
-32 159 -60 169 -86 3 -9 -1 -31 -10 -49 -54 -113 -412 -274 -540 -241 -32 8
-27 31 20 85 36 43 175 140 236 166 43 18 50 30 10 14 -148 -56 -333 -196
-333 -252 0 -47 30 -70 97 -73 212 -9 526 151 560 284 19 72 -23 110 -179 161
-71 24 -118 54 -118 76 0 39 118 130 224 173 62 25 121 31 138 14 21 -21 -39
-89 -120 -138 -34 -21 -45 -24 -57 -14 -12 10 -15 7 -21 -15 -4 -15 -2 -31 4
-37 18 -18 77 0 129 39 90 66 120 145 68 179 -35 23 -100 26 -163 9z"/>
</g>
</svg>
