<svg xmlns="http://www.w3.org/2000/svg">

<symbol id="portfolio" viewBox="0 0 512 512">
   <g>
   <path fill="#ffffff" d="M482 116H356V86c0-27.57-22.43-50-50-50H206c-27.57 0-50 22.43-50 50v30H30c-16.54 0-30 13.46-30 30v300c0 16.54 13.46 30 30 30h452c16.54 0 30-13.46 30-30V146c0-16.54-13.46-30-30-30zm-306 0V86c0-16.54 13.46-30 30-30h100c16.54 0 30 13.46 30 30v30h-20V86a10 10 0 00-10-10H206a10 10 0 00-10 10v30zm120 0h-80V96h80v20zM30 136h26a10 10 0 0010 10h60a10 10 0 0010-10h240a10 10 0 0010 10h60a10 10 0 0010-10h26c5.52 0 10 4.49 10 10v110H296a10 10 0 00-10 10v20c0 16.55-13.46 30-30 30s-30-13.45-30-30v-20a10 10 0 00-10-10H20V146c0-5.51 4.49-10 10-10zm452 320H30c-5.51 0-10-4.49-10-10v-10h191a10 10 0 100-20H20V276h186v10c0 27.57 22.43 50 50 50s50-22.43 50-50v-10h186v140H301a10 10 0 100 20h191v10c0 5.51-4.49 10-10 10z"/>
   <path fill="#ffffff" d="M256 296a10 10 0 100-20 10 10 0 100 20zM256 416a10 10 0 10-.02 20 10 10 0 00.02-20z"/>
   </g>
</symbol>

<symbol id="clock" viewBox="0 0 32 32">
   <g>
      <g data-name="Layer 2">
      <path fill="#ffffff" d="M16 29a13 13 0 1113-13 13 13 0 01-13 13zm0-24a11 11 0 1011 11A11 11 0 0016 5z"/>
      <path fill="#ffffff" d="M21.5 22.5a1 1 0 01-.71-.29l-5.5-5.5A1 1 0 0115 16V8a1 1 0 012 0v7.59l5.21 5.2a1 1 0 010 1.42 1 1 0 01-.71.29z"/>
      </g>
      <path fill="none" d="M0 0h32v32H0z"/>
   </g>
</symbol>

<symbol id="star" viewBox="0 0 612 612">
   <g>
      <path fill="#ffffff" d="M610.04 233.9a40.64 40.64 0 00-32.53-27.43l-162.66-23.62L342.1 35.47A40.5 40.5 0 00306 12.99a40.57 40.57 0 00-36.15 22.47l-72.72 147.39-162.7 23.63a40.65 40.65 0 00-32.5 27.42 40.55 40.55 0 0010.2 41.28l117.7 114.75-27.76 161.98a40.47 40.47 0 0016 39.4 40.03 40.03 0 0023.7 7.7c6.51 0 13-1.6 18.74-4.62l145.5-76.49 145.47 76.49a40.4 40.4 0 0042.42-3.07 40.52 40.52 0 0016.02-39.39l-27.79-162 117.72-114.75a40.46 40.46 0 0010.18-41.28zm-21.96 29.2L467.2 380.96a8.43 8.43 0 00-2.42 7.46L493.3 554.8a23.56 23.56 0 01-9.32 22.9 23.43 23.43 0 01-24.65 1.78l-149.4-78.56a8.44 8.44 0 00-7.85 0l-149.42 78.56a23.87 23.87 0 01-24.68-1.79 23.51 23.51 0 01-9.3-22.9l28.51-166.37a8.43 8.43 0 00-2.42-7.46L23.9 263.11a23.57 23.57 0 01-5.94-23.99 23.67 23.67 0 0118.92-15.96l167.07-24.26a8.43 8.43 0 006.35-4.62l74.68-151.36a23.6 23.6 0 0121.03-13.07c8.84 0 17.07 5.12 20.98 13.07l74.7 151.36a8.44 8.44 0 006.35 4.62l167.04 24.26A23.66 23.66 0 01594 239.13c2.74 8.38.42 17.8-5.93 23.98z"/>
   </g>
</symbol>

<symbol id="heart" viewBox="0 0 612 612">
   <g>
      <path fill="#ffffff" d="M459 18.07c-63.74 0-111.98 37.41-153 76.5-39.1-41.48-89.26-76.5-153-76.5-89.77 0-153 77.2-153 161.36 0 45.16 18.5 77.69 38.75 108.23l237.78 285.08c26.7 28.25 31.73 28.25 58.43 0l238.31-285.08C597.08 257.12 612 224.6 612 179.43c0-84.17-63.23-161.36-153-161.36zm76.5 261.67L306 553.58 76.5 278.6c-27.44-38.15-38.25-63.9-38.25-99.18C38.25 113.68 85.2 54.5 153 53.93c55.77-.46 118.98 56.5 153 99.44 33.13-41.45 97.23-99.44 153-99.44 66 0 114.75 59.75 114.75 125.5 0 35.29-8.55 62.94-38.25 100.31z"/>
   </g>
</symbol>

<symbol id="tw" viewBox="0 0 24 24">
   <g>
      <path fill="#ffffff" d="M24 4.3c-.9.4-1.8.7-2.8.8 1-.6 1.8-1.6 2.2-2.7-1 .6-2 1-3.1 1.2-1-1-2.3-1.6-3.7-1.6a4.9 4.9 0 00-4.9 4.9c0 .4 0 .8.1 1.1-4.1-.2-7.7-2.1-10.1-5.1-.5.7-.7 1.6-.7 2.5 0 1.7.9 3.2 2.2 4.1-.8-.1-1.6-.3-2.2-.6V9c0 2.4 1.7 4.4 3.9 4.8-.4.1-.8.2-1.3.2-.3 0-.6 0-.9-.1.6 2 2.4 3.4 4.6 3.4a10 10 0 01-6.1 2.1c-.4 0-.8 0-1.2-.1 2.2 1.4 4.8 2.2 7.5 2.2 9.1 0 14-7.5 14-14v-.6c1-.7 1.8-1.6 2.5-2.6"/>
   </g>
</symbol>

<symbol id="fc" viewBox="0 0 24 24">
   <g>
      <path fill="#ffffff" d="M12 0a12 12 0 00-1.8 23.85v-8.67H7.25v-3.15h2.97v-2.1c0-3.48 1.69-5 4.58-5 1.38 0 2.11.1 2.46.15v2.75h-1.97c-1.23 0-1.66 1.16-1.66 2.47v1.73h3.6l-.49 3.15h-3.1v8.7A12 12 0 0012 0z"/>
   </g>
</symbol>

<symbol id="in" viewBox="0 0 26 26">
   <g>
      <path fill="#ffffff" d="M7.55 0A7.56 7.56 0 000 7.55v10.9C0 22.61 3.4 26 7.55 26h10.9c4.16 0 7.55-3.4 7.55-7.55V7.55C26 3.39 22.6 0 18.45 0zm0 2h10.9A5.53 5.53 0 0124 7.55v10.9A5.53 5.53 0 0118.45 24H7.55A5.53 5.53 0 012 18.45V7.55A5.53 5.53 0 017.55 2zM20.5 4a1.5 1.5 0 100 3 1.5 1.5 0 000-3zM13 6c-3.86 0-7 3.14-7 7s3.14 7 7 7 7-3.14 7-7-3.14-7-7-7zm0 2c2.77 0 5 2.23 5 5s-2.23 5-5 5-5-2.23-5-5 2.23-5 5-5z"/>
   </g>
</symbol>

<symbol id="circle" viewBox="0 0 50 50">
   <g>
      <circle cx="25" cy="25" r="23.9" fill="none" stroke-width="2" stroke-miterlimit="10"/>
      <path fill="none" stroke-width="2" stroke-linecap="round" stroke-linejoin="round" stroke-miterlimit="10" d="M36.1 20.5L25 33.5l-11.1-13"/>
   </g>
</symbol>


</svg>