<svg viewBox="0 0 480.06 480.06" xmlns="http://www.w3.org/2000/svg"><path d="M402.03 424.8v47.26a8 8 0 01-16 0v-47.25a66.53 66.53 0 00-66.57-66.58 49.12 49.12 0 01-42.26-23.72 8 8 0 1113.67-8.33 33.23 33.23 0 0028.59 16.06 82.53 82.53 0 0182.57 82.57zm-139.6-80.19a8 8 0 01-6.12 9.52 76.57 76.57 0 01-59.51-11.64c-16.88 18.09-39.18 15.74-36.2 15.74a66.53 66.53 0 00-66.57 66.58v47.25a8 8 0 01-16 0v-47.25a82.52 82.52 0 0182.57-82.57 33.35 33.35 0 0033.43-33.35v-2.1c-34.92-16.7-59.43-51.79-60.92-92.65-14.37-3.45-25.08-16.31-25.08-31.62v-41.47c-.43-20.3 2.58-71.14 39.65-106.88C193.46-9.95 266.86-7.15 320.84 18.84a8.02 8.02 0 011.7 13.32A107.98 107.98 0 01388.6 79.7c.78 1.24 2.21 3.18 1.84 6.28a8.1 8.1 0 01-2.3 5.08 52.23 52.23 0 00-15.12 36.9v54.57a8 8 0 01-16 0v-54.57a68.1 68.1 0 0115.54-43.5c-15.33-21.93-39.26-36.04-66.33-38.93l-14.06-1.51c-8.22-.88-9.83-12.2-2.2-15.35l6.4-2.63C213.1-3 124.03 29.26 124.03 140.96v41.56c0 6.35 3.66 11.87 9 14.64V145.3c0-30.88 25.12-56 56-56h102c30.88 0 56 25.12 56 56v65.5c0 69.57-67.99 122.42-137.17 102.05a48.91 48.91 0 01-4.18 16.33 60.58 60.58 0 0047.23 9.32 8 8 0 019.52 6.11zm-22.4-43.42c50.18 0 91-40.82 91-91v-64.9c0-22.05-17.94-40-40-40h-102c-22.05 0-40 17.95-40 40v64.9c0 50.18 40.82 91 91 91zm81 137.87h-24a8 8 0 000 16h24a8 8 0 000-16z"/></svg>