<svg xmlns="http://www.w3.org/2000/svg" viewBox="0 0 192.76 192.76"><g fill-rule="evenodd" clip-rule="evenodd"><path fill="#fff" d="M0 0h192.76v192.76H0V0z"/><path d="M72.03 98.41a6.58 6.58 0 01.94-.44l.2-.19c.31-.07.57-.12.8-.19.12-.09.24-.18.36-.25l.53-.38c.07-.07.07-.11.07-.19a2.79 2.79 0 01-.33-.53h-.3c-.44.16-.89.35-1.33.46l-.23.26c-.38.12-.7.26-1.01.38-.26.18-.44.32-.63.44a1.4 1.4 0 01-.45.12c-.49.37-1 .7-1.45 1-.37.19-.74.33-1.05.45-.26.18-.44.32-.63.44-.19.07-.33.07-.44.07-.2.19-.38.3-.52.42-.19.07-.3.14-.42.21-.6.42-1.2.87-1.78 1.26a8.68 8.68 0 01-.75.54c-.07.07-.07.14-.07.21a1.4 1.4 0 00-.42.2c-.18.18-.4.3-.51.41-.19.07-.3.14-.45.19a.46.46 0 01-.18.26 69.2 69.2 0 01-2.2 1.45c-.3.3-.63.63-.87.93-.14.07-.25.14-.4.19-.18.19-.3.33-.42.44-.18.07-.32.07-.44.07.05-.32.12-.63.12-.88l.32-.26c.2-.24.3-.42.43-.61.25-.14.44-.26.63-.33.25-.25.51-.44.7-.63.3-.23.63-.42.93-.63.14-.05.2-.05.26-.05.12-.18.26-.32.38-.44l1.19-.82c.12-.19.26-.3.37-.44l1.2-.82c.07-.12.14-.19.18-.23.2-.07.33-.15.45-.22.18-.18.37-.37.51-.49.42-.3.87-.56 1.24-.81.33-.3.63-.64.96-.94.23-.14.5-.26.68-.38.07-.13.07-.18.07-.25a73.42 73.42 0 011.5-1.31c.07-.12.07-.19.07-.24.32-.25.63-.44.88-.63.12-.18.24-.37.38-.51.07-.19.12-.38.12-.5a1.6 1.6 0 00-.2-.44 1.19 1.19 0 01-.25-.18c-.04-.45-.04-.82-.04-1.13-.07-.07-.15-.14-.15-.2-.04-.31-.11-.61-.11-.94a1.18 1.18 0 01-.26-.19c-.26.07-.49.07-.68.07-.89.56-1.7 1.12-2.52 1.64a.96.96 0 01-.19.3c-.38.26-.75.52-1.12.75-.45.4-.9.77-1.34 1.12a1.28 1.28 0 01-.18.14 81.9 81.9 0 01-2.2 1.62c-.05.11-.12.25-.19.3-.19.14-.3.19-.44.26-.05.07-.05.14-.05.19a2.62 2.62 0 01-.59.44c-.04.07-.04.12-.04.19-.14.07-.26.11-.33.18a3.4 3.4 0 00-.3.57c-.26.18-.45.37-.64.51a.85.85 0 00-.11.3c-.07.07-.14.15-.19.15a4.42 4.42 0 00-.44.63c-.14.04-.19.11-.26.18a62.7 62.7 0 00-1.64 2.06c-.18.14-.37.19-.49.26-.33.26-.63.52-.89.7a59.82 59.82 0 01-1.63.87V104c.63-.9 1.26-1.71 1.82-2.5.19-.26.33-.52.45-.78.3-.37.56-.75.81-1.05.3-.33.63-.63.94-.89.33-.45.56-.82.82-1.2a1.24 1.24 0 00-.19-.25c-.44-.26-.89-.44-1.26-.63-.05-.19-.12-.35-.19-.54V94.9c-.19-.05-.3-.12-.44-.19-.12.07-.24.14-.38.19a160.18 160.18 0 00-4.2 3.58c-.12.18-.24.37-.38.49-.3.3-.63.63-.94.89-.07.04-.14.04-.18.04-.07.14-.15.2-.15.26-.42.33-.81.56-1.19.82-.04.11-.04.26-.04.3-.26.21-.45.4-.64.52-.18.25-.32.44-.44.63-.3.3-.63.63-.94.86-.18.14-.37.26-.58.4-.05-.14-.05-.26-.05-.4.2-.23.3-.49.45-.74.04-.26.11-.5.11-.75.64-.75 1.27-1.45 1.83-2.13.07-.19.12-.33.19-.44a52.69 52.69 0 011.7-2.53 58.27 58.27 0 001.62-2.17c.18-.2.4-.38.58-.57.75-1.19 1.5-2.31 2.25-3.46.14-.04.18-.11.25-.18.07-.2.12-.3.2-.45.25-.18.44-.37.62-.49.9-.19 1.71-.37 2.5-.51 1.01-.3 2.02-.63 3.02-.87.21-.07.4-.07.59-.07.56-.19 1.05-.3 1.56-.44l.5-.07c.27-.03.56-.07.81-.12.26-.12.45-.19.63-.26.38-.05.75-.05 1.08-.05.19-.14.3-.19.44-.26.87-.25 1.69-.44 2.5-.63.52-.07 1-.12 1.45-.19l.12-.11 1.45-.19.12-.14c.47-.12.93-.23 1.35-.3h.1c.32-.07.63-.07.96-.07l1.82-.38c.12-.07.23-.12.3-.19.07-.37.12-.7.2-1 .1-.12.25-.19.3-.26.07-.19.14-.37.2-.49a2.62 2.62 0 00-.2-.44h-2.13a8.53 8.53 0 01-1.31.11c-.12.07-.17.12-.24.12 0 .02-.02.02-.02.02-2.01.38-4.02.68-6.03 1.01-.07.05-.12.12-.12.12a1.4 1.4 0 01-.44.11c-.38.07-.7.07-1.01.07l-.14.12-1.38.21c-.05.05-.05.12-.05.12l-.77.19a25.54 25.54 0 01-.42.25c-.7.12-1.4.24-2.08.38-.14.11-.26.18-.33.25-.23.05-.49.05-.75.05a9 9 0 01-1.12.63c-.14-.11-.26-.18-.37-.25v-.38c.18-.19.37-.37.49-.56.18-.12.37-.26.56-.37.07-.12.07-.2.07-.26.3-.26.63-.45.93-.63.2-.24.38-.5.59-.68.05-.26.05-.45.05-.63-.12-.26-.26-.45-.3-.63a.676.676 0 01-.27-.2h-.7c-.56.45-1.05.9-1.56 1.32-.3.4-.64.7-.94 1-.12.07-.19.07-.26.07-.49.56-1 1.13-1.45 1.71-.23.23-.49.42-.75.63-.18.3-.37.56-.49.8a51.7 51.7 0 01-3.57 1.07c-.4.19-.7.33-1.01.45-.21.07-.33.07-.44.07-.57.23-1.15.49-1.71.74-.3.07-.63.12-.94.2a2.63 2.63 0 01-.37.25c-.19.05-.38.05-.56.05-.07.14-.14.18-.21.25-.12.07-.24.07-.3.07-.08.05-.13.12-.13.12-.32.07-.63.14-.95.19-.05.07-.12.14-.19.14-.3.04-.63.11-.94.18l-1.7.75c-.05.07-.05.12-.05.12-.19.07-.33.07-.44.07-.64.3-1.27.63-1.9.89-.23.05-.44.05-.63.05-.6.32-1.2.63-1.75.95.07.24.07.43.07.61.18.14.3.21.44.26.75.07 1.5.14 2.2.14a28.82 28.82 0 012.64-1.08c.3-.07.61-.11.94-.18a22.43 22.43 0 012.69-.75c.4-.19.77-.33 1.07-.45 1-.32 2.01-.56 3.02-.81.14-.14.26-.2.33-.26.37-.07.75-.12 1.12-.12-.07.19-.12.38-.12.5a3.19 3.19 0 01-.58.44 7.56 7.56 0 01-.37.75.46.46 0 00-.3.14c-.27.3-.45.63-.64.93a1.18 1.18 0 00-.26.19c-.04.12-.04.26-.04.3-.45.4-.82.78-1.22 1.08-.05.14-.05.26-.05.33l-.75 1.21-.44.45c-.07.14-.07.25-.07.37-.12.14-.26.19-.3.26-.14.12-.19.26-.26.37-.07.2-.14.38-.19.56l-.51.52c-.19.3-.3.63-.45.93l-.3.2-.19.74c-.56.59-1.07 1.08-1.56 1.6-.45.3-.9.62-1.34.93-.19.25-.37.44-.56.63.07-.19.07-.38.07-.52.12-.3.26-.56.38-.81.88-1.31 1.7-2.62 2.5-3.89l.89-1c.07-.14.11-.26.18-.38.33-.37.63-.77.94-1.14.21-.23.33-.47.44-.66l-.44-.63-.6-.19a245.22 245.22 0 00-3.1 1.85c-.11-.04-.18-.04-.25-.04-.12-.15-.26-.26-.3-.33-.08-.23-.08-.42-.08-.6-.07-.13-.11-.24-.18-.31-.12-.07-.26-.07-.38-.07-.25.07-.44.07-.63.07-.19.11-.37.25-.56.3-.07.14-.14.19-.19.26l-.77.35c-.05.14-.12.19-.19.26l-.74.37c-.07.14-.12.26-.2.33-.1.11-.25.19-.3.23l-.18.33c-.14.05-.19.05-.26.05-.14.14-.26.2-.33.25a.85.85 0 01-.18.33c-.38.23-.75.42-1.06.63-.25.3-.51.61-.7.94-.12.07-.19.07-.26.07-.11.11-.23.18-.3.23-.07.14-.12.26-.19.33-.32.3-.56.56-.82.82a1.91 1.91 0 01-.56.23c-.07.07-.07.14-.07.19-.44.4-.89.7-1.26 1l-1.57.82c-.56.28-1.12.56-1.68.82l-.26.26c-.25.11-.51.25-.75.37-.07.14-.14.19-.18.26l-.77.37c-.03.05-.05.07-.05.12l-.14.14c-.38.26-.75.44-1.12.63-.07-.19-.07-.37-.07-.58.14-.19.25-.3.37-.42a110.69 110.69 0 011.57-1.38l.58-.2c.19-.2.38-.32.5-.44a5.03 5.03 0 01.74-.44c.4-.37.7-.7 1-1 .1-.08.2-.12.26-.2l1.01-.7c.37-.37.75-.74 1.07-1.12.26-.11.5-.18.75-.25.2-.2.33-.3.45-.45l1.38-.82c.3-.3.63-.56.93-.81.07-.2.14-.3.19-.43v-.44c-.05-.07-.12-.07-.12-.07-.07-.26-.11-.44-.18-.63v-.84c-.2-.26-.3-.45-.45-.63-.12-.07-.26-.07-.3-.07-.26.11-.52.25-.78.32-.11.12-.23.2-.3.24-.3.14-.63.25-.94.37-.18.19-.37.3-.51.42l-1.31.57a13 13 0 01-.89.77l-.94.81-1.26.87-1.12.96a1.9 1.9 0 00-.38.18c-.14.05-.25.12-.4.2-.37.41-.74.86-1.12 1.23-.25.19-.44.33-.63.45a.86.86 0 01-.18.32l-1.08.82a2.97 2.97 0 00-.42.56c-.33.3-.63.56-.89.82-.12.19-.19.37-.26.5-.18.13-.3.25-.44.32-.42.6-.87 1.24-1.24 1.82.12.3.19.56.23.8.07.33.07.58.07.82-.07.14-.11.18-.18.25.07.26.07.45.07.64.25.3.44.63.63.88.23.12.42.24.63.38h.3l.75-.38c.14-.18.26-.37.38-.58.14-.05.18-.05.25-.05.33-.32.63-.56.94-.81.14-.07.26-.15.33-.15.07-.11.11-.23.18-.3.26-.19.45-.3.63-.44.45-.2.87-.38 1.27-.5a1.43 1.43 0 01.18-.16l.75-.6c.75-.38 1.5-.68 2.2-1.01a.9.9 0 00.38.26c.07.25.07.51.07.7.11.25.18.49.23.74l.07.1.33.35c.23.12.49.26.75.37.07-.07.11-.07.18-.07.07-.44.12-.86.12-1.24.33-.44.56-.81.82-1.21.33-.38.63-.68.96-1 .11-.24.23-.43.37-.61.23-.26.42-.52.63-.7.19-.2.38-.31.56-.45a.97.97 0 01.2-.3c.36-.33.74-.57 1.04-.82.14-.19.26-.33.4-.45.19-.07.3-.07.42-.07-.05.2-.05.33-.05.45-.37.63-.77 1.26-1.07 1.9-.07.25-.07.48-.07.74.19.19.33.37.44.56.14.07.2.07.26.07l1-1.56c.12-.07.2-.07.26-.07.24-.3.42-.64.61-.9.33-.3.63-.55.96-.79.26.05.44.05.63.05-.33.44-.58.89-.82 1.26-.14.07-.26.12-.33.19-.18.26-.3.51-.44.75-.23.56-.5 1.07-.68 1.56-.12.14-.19.26-.26.33-.07.12-.07.26-.07.3-.04.08-.11.15-.11.15a19.51 19.51 0 00-.63 1.87c.07.18.07.37.07.56l.18.21h.26c.12-.21.23-.33.3-.44.33-.33.63-.57.94-.82.14-.19.26-.38.4-.52.3-.18.6-.37.86-.56.96-.82 1.83-1.64 2.71-2.45.12.07.2.14.26.14-.07.23-.14.42-.14.63a6.08 6.08 0 00-.63.93 1.93 1.93 0 01-.19.5l-.44.63c-.05.18-.05.37-.05.56.12.14.24.26.3.4a.4.4 0 01.08.23c.11.07.18.14.25.19l.38.96a.49.49 0 01.23.18c.14-.07.26-.14.4-.18.19-.26.3-.52.42-.78l.19-.6a.62.62 0 01.2-.26c.5-.07.94-.07 1.39-.07.23-.26.42-.5.63-.68l.86-1.26.2-.56c.5-.64 1-1.27 1.51-1.83.37-.33.75-.63 1.05-.89.33-.37.59-.74.82-1.07.26-.19.52-.3.77-.42.3-.4.61-.77.94-1.08.26-.19.49-.33.75-.44.07-.12.14-.26.18-.3.33-.08.63-.08.94-.08.07.26.07.5.07.7-.12.12-.26.24-.3.3-.07.08-.14.08-.2.08-.88 1.19-1.77 2.31-2.56 3.44-.07.14-.07.25-.07.32-.19.26-.33.45-.45.64-.07.04-.11.11-.18.11-.45.7-.82 1.38-1.2 2.01v.52c.2.23.38.42.56.6v.45c-.11.19-.25.37-.37.56.12.26.26.45.3.63.15.07.26.07.33.07.38-.07.75-.07 1.08-.07.23-.42.49-.86.68-1.24.63-.63 1.26-1.26 1.9-1.82.18-.14.36-.26.55-.37.5-.52 1-1.01 1.45-1.52.19.07.3.07.42.07-.04.23-.04.44-.04.63-.14.11-.19.18-.26.23-.07.19-.07.37-.07.52-.12.18-.19.3-.23.44.04.19.04.3.04.42.26.4.45.77.63 1.08.26.32.52.56.75.81h.33c.26-.25.44-.49.63-.74.19-.14.38-.26.5-.38.13-.19.25-.37.32-.56.12-.07.19-.07.23-.07l1.45-1.2c.19-.18.33-.37.45-.5.25-.2.44-.38.63-.5.19-.19.37-.37.49-.56.19-.07.33-.14.44-.19a33.17 33.17 0 011.9-1.45l.49-.28c.37-.23.72-.42 1.07-.6l2.39-1.64c.37-.19.75-.3 1.08-.45.11-.18.25-.3.37-.42.19-.07.37-.14.56-.18.07-.07.07-.15.07-.15.12-.04.19-.04.26-.04.05-.07.05-.14.05-.14.44-.2.88-.38 1.26-.5a3 3 0 01.56-.45zm-12.11 4.33c.56-.68 1.12-1.45 1.68-2.2.33-.3.63-.63.94-1 0-.05.07-.12.14-.26l1.45-1.24.19-.33.04-.05c.2-.18.42-.35.63-.58.33-.19.64-.42 1.01-.68.14-.11.26-.23.37-.42.33-.26.7-.5 1.08-.82.19-.07.37-.18.56-.3.26 0 .52 0 .75.05 0 .25.07.5.14.77-.75.56-1.57 1.1-2.39 1.73-.07.07-.14.11-.18.25l-.33.2c-.05.04-.12.18-.26.3-.11.07-.23.11-.37.18a9.53 9.53 0 01-.42.64c-.19.09-.38.18-.59.3l-.23.14c-.07.07-.14.19-.26.3l-1.2.82c-.18.19-.44.38-.7.63l-.18.33c-.3.3-.63.6-.94.94-.14.07-.25.11-.44.26-.07.11-.12.23-.19.37a.78.78 0 00-.37.12c0-.12 0-.26.07-.45zm-32.44.14c.19-.14.38-.33.56-.52 0-.11.07-.25.12-.44.14-.12.26-.23.44-.42 0-.07 0-.14.07-.21l.45-.19c.12-.19.26-.37.44-.56.2-.12.38-.26.61-.37 0-.05.05-.12.07-.2l.07-.1c.19-.08.37-.15.56-.2.12-.14.26-.25.38-.44.07 0 .14 0 .25-.07.07-.07.12-.12.2-.26l.62-.19c.12-.11.26-.23.45-.44a6 6 0 00.93-.49c.26 0 .5-.07.75-.12 0 .12.07.24.14.38-.33.23-.7.56-1.07.86-.45.26-.9.52-1.38.82l-1.9 1.54c-.07.05-.11.12-.18.17l-.94.93c-.37.26-.75.52-1.15.82l-.42.45s-.07 0-.14-.07c0-.05-.04-.12-.11-.26.07-.12.11-.23.18-.42zm83.5-16.77c.18.07.36.07.5.07l.31.3c.07.2.07.38.07.57-.52.51-1 1-1.52 1.45-.12.25-.23.51-.38.7l-.48.49c-.15.14-.26.28-.38.37-.14.2-.26.4-.37.59-.26.18-.52.3-.78.42-.04.14-.11.26-.18.4.07.11.14.18.18.23.26-.05.45-.05.64-.05.14-.07.25-.14.37-.18l.52-.64c.06-.09.16-.16.25-.25l.5-.33c.11-.19.25-.38.37-.5.19-.1.33-.25.44-.3.07-.14.12-.25.19-.32.63-.68 1.26-1.38 1.82-2.02.12-.25.26-.44.38-.63.63-.63 1.26-1.24 1.82-1.87.07-.07.07-.14.07-.18.12-.07.19-.15.24-.2v-.58a5 5 0 01-.8-.37h-.63a5.78 5.78 0 01-.7.33c-.3.3-.63.56-.94.82l-.19.3c-.25.12-.51.26-.7.3-.19.21-.37.4-.56.52-.07.19-.07.38-.07.56zM21 102.18c.2-.07.33-.12.45-.12.07-.14.12-.19.19-.26.25-.11.49-.25.7-.37.18-.19.37-.33.49-.44a81.82 81.82 0 011.75-.82c.14-.12.19-.19.26-.26v-.3c-.07-.07-.12-.12-.12-.2-.07-.25-.14-.44-.14-.62-.04-.07-.11-.12-.11-.2h-.52c-.3.13-.6.27-.86.31-.07.07-.07.14-.07.14-.38.05-.75.12-1.08.2-.3.1-.56.25-.82.3-.12.14-.23.18-.3.25-.19.07-.3.07-.45.07-.25.2-.44.3-.63.42-.42.22-.86.33-1.24.45-.58.37-1.14.7-1.7 1-.07.07-.07.15-.07.15a1.38 1.38 0 00-.43.18c-.18.19-.4.3-.5.45a5.08 5.08 0 00-.57.18c-.26.2-.52.38-.7.57-.12.04-.19.04-.24.04-.07.07-.07.14-.07.14a1.61 1.61 0 01-.56.12c-.37.33-.77.56-1.14.82-.5.26-.94.44-1.38.63l-.3.3-.38.64c-.19.07-.38.14-.59.18-.11.2-.23.38-.37.59-.19.05-.3.05-.42.05-.14.07-.21.14-.26.18a1.05 1.05 0 01-.14-.11v-.33c.26-.42.52-.87.77-1.24.05-.14.05-.26.05-.33.26-.23.44-.49.63-.68.33-.51.63-.95.89-1.38.12-.07.26-.14.3-.18.14-.33.26-.64.33-.9.12-.06.19-.11.23-.11.26-.4.45-.77.64-1.07.25-.26.51-.52.77-.75.56-.77 1.12-1.45 1.61-2.15.45-.38.82-.75 1.22-1.06.12-.25.23-.42.37-.6.3-.26.63-.45.87-.64.37-.56.77-1.07 1.14-1.56.24-.19.42-.33.61-.45.4-.44.77-.81 1.08-1.19.14-.07.25-.14.32-.19l.38-.56c.19-.2.37-.4.56-.51.68-.82 1.38-1.57 2.08-2.32A52.05 52.05 0 0125.54 87a.87.87 0 01.19-.32c.26-.26.54-.5.82-.75.65-.59 1.33-1.17 2.01-1.76.19-.18.3-.37.42-.56.33-.25.59-.44.82-.63.16.05.3.05.44.05h.14c-.07.26-.14.44-.14.63-.11.14-.18.19-.25.26l-.87 2.2v.5l.19.2c.07.18.12.37.19.49h.44l.3-.57c.45-.79.85-1.56 1.27-2.31.11-.07.18-.14.25-.19.05-.14.05-.2.05-.25.19-.26.33-.45.45-.64.18-.11.32-.25.44-.37.07-.14.07-.19.07-.26a.68.68 0 00.23-.18c.07-.12.14-.26.19-.3v-.45c-.23-.26-.5-.45-.75-.63-.05-.26-.05-.45-.05-.63.05-.12.05-.26.05-.3.07-.08.14-.08.14-.08v-.56a3.56 3.56 0 01-.33-.51c-.25-.2-.49-.3-.67-.45-.33.14-.59.26-.82.33-.14.12-.26.19-.33.26-.07 0-.12.02-.19.04l-.3.14c-1.15.8-2.3 1.6-3.4 2.41l-2.14 1.54-2.06 1.69c-.33.4-.63.77-.96 1.07-.5.38-.94.75-1.38 1.15-.07.12-.12.23-.19.3-.89.68-1.68 1.38-2.5 2.09a3.11 3.11 0 00-.44.56 15.11 15.11 0 01-.96.82c-.24.18-.5.3-.75.44a.96.96 0 01-.19.3c-.44.45-.87.9-1.3 1.2-.27.37-.52.75-.78 1.12a6.01 6.01 0 01-.94.82c-.18.19-.3.37-.44.58a1.65 1.65 0 00-.42.38c-.07.11-.07.18-.07.23-.07.07-.14.07-.14.07-.05.12-.12.23-.12.3-.12.12-.26.2-.3.24-.07.07-.07.14-.07.19-.12.07-.19.14-.26.18l-.37.59a.67.67 0 00-.26.18 1.9 1.9 0 01-.19.5c-.19.25-.3.44-.44.62-.05.12-.05.2-.05.26a.85.85 0 00-.33.19c-.04.19-.11.3-.11.44-.3.38-.64.75-.94 1.13l-.19.63c-.25.37-.44.75-.63 1.07-.14.05-.19.12-.26.19-.07.19-.11.3-.18.42a2.57 2.57 0 00-.45.4c-.44.75-.89 1.43-1.26 2.13-.05.19-.05.37-.05.49-.14.14-.18.26-.25.33-.26.49-.52.93-.7 1.38-.05.07-.12.07-.12.07-.12.23-.26.49-.3.74l-.22.94c.26.37.45.75.63 1.08l.2.63.39.74c.37.2.75.3 1.12.45h.9c.18-.19.37-.38.48-.52a41.97 41.97 0 011.9-1.19c.04-.11.11-.23.18-.37l.75-.56c.19-.07.3-.12.45-.2.11-.25.25-.44.37-.62.19-.2.37-.3.56-.45.33-.18.63-.37.94-.49l.18-.33c.4-.23.78-.44 1.08-.63.19-.18.38-.3.52-.42.18-.07.3-.14.42-.19.07-.07.07-.14.07-.14.18-.07.32-.11.44-.18.19-.2.37-.38.5-.57.25-.11.5-.25.76-.37.24-.26.45-.44.63-.63.3-.19.61-.3.94-.45l.63-.44c.12-.05.26-.05.3-.05.38-.25.75-.44 1.08-.63.07-.14.12-.19.19-.26l.93-.37.63-.44zm168.85-9.47c-.07-.12-.14-.24-.19-.38-.25.07-.44.07-.63.07-.11.12-.25.19-.32.26-.57.05-1.13.19-1.69.3a23.92 23.92 0 00-1.45 1.71c-.19.05-.3.12-.44.19-.45.37-.87.67-1.24 1-.07.05-.07.12-.07.19-.14.05-.19.05-.26.05-.12.14-.26.18-.3.25-.07.05-.07.12-.07.17-.26.07-.45.07-.63.07v-.61c.32-.3.63-.63.88-.94-.07-.51-.07-1-.07-1.45l-.18-.18c-.2.07-.38.07-.56.07-.57.37-1.15.75-1.64 1.12-.63.5-1.2 1-1.76 1.5-.37.25-.77.49-1.07.67a.97.97 0 01-.19.26 2.73 2.73 0 00-.37.19 1.1 1.1 0 00-.14.3 3.15 3.15 0 01-.57.45c-.04.07-.04.11-.04.19-.21.11-.33.25-.45.32a6.5 6.5 0 00-.44.61c-.26.19-.44.33-.63.44l-.26.4c-.02.05-.05.07-.05.12-.06.12-.06.23-.06.3a3.1 3.1 0 01-.57.45c-.07.11-.07.25-.07.3-.3.33-.63.59-.89.82a2.62 2.62 0 01-.18.51c-.5.26-1 .5-1.43.75a.745.745 0 00-.14-.11v-.64l.7-.7.82-1.24c.19-.14.37-.25.56-.4.07-.11.07-.18.07-.23.3-.32.6-.63.94-.96l.3-.2c.1-.05.16-.1.26-.17.07-.12.11-.26.19-.3.18-.15.32-.2.44-.26.07-.12.12-.26.19-.3-.07-.08-.12-.15-.12-.2-.19-.06-.4-.13-.51-.2-.15.04-.31.04-.45.07h-.63c-.42.51-.87.93-1.31 1.38-.37.32-.75.63-1.08.95-.18.24-.37.43-.49.61a15 15 0 01-.93.9 2.37 2.37 0 00-.45.55c-.18.2-.37.33-.51.45-.38.07-.75.11-1.05.18a11.9 11.9 0 01.18-.93c.19-.26.3-.45.42-.63.2-.12.33-.26.45-.38.32-.44.56-.82.82-1.19.37-.33.74-.56 1.07-.82.38-.44.68-.89 1-1.26.27-.26.5-.45.76-.63.44-.24.88-.42 1.26-.61l.49-.37.33-.26c.23-.05.49-.12.68-.12.14.19.18.38.25.52-.07.11-.07.18-.07.23l.2.5h.43c.15-.43.2-.87.26-1.25.07-.3.07-.63.07-.93-.07-.14-.14-.26-.14-.38-.19-.14-.37-.19-.49-.26h-.56c-.35.12-.65.24-.96.3h-.05l-.18.2c-.21.07-.33.14-.45.18-.07.14-.14.21-.19.26-.25.14-.51.26-.77.37l-1.05.9c-.26.1-.51.25-.75.37l-.77.72c-.82.63-1.64 1.2-2.45 1.78-.05.12-.05.19-.05.23-.45.38-.82.7-1.2 1-.06.15-.06.27-.06.33-.19.12-.3.26-.45.31l-.74.96c-.07.11-.07.19-.07.23a4.42 4.42 0 01-.31.33c-.07.05-.14.05-.19.05-.07.14-.07.25-.07.32l.12.12c.07.26.14.51.14.75-.14.14-.26.26-.33.4a1.91 1.91 0 01-.18.49c.14.18.25.37.32.51.12.05.26.12.3.12h.45c.38-.12.75-.26 1.08-.3.23-.22.44-.4.63-.6h.68l.19 1.46c.14.12.18.26.25.37.07.07.12.07.19.07.19-.07.37-.07.56-.07.33-.3.56-.63.82-.93l.44-.26.3-.3c.26-.08.45-.08.64-.08.14.2.19.33.26.45.07.19.11.37.11.49.14.14.19.26.26.37.26.21.44.33.63.45.19-.05.3-.05.45-.05.11-.4.25-.7.37-1 .19-.15.3-.26.44-.38l.68-.89c.3-.4.61-.77.89-1.12.12-.07.26-.14.3-.21l.2-.3c.13-.12.25-.2.32-.26l.19-.38.75-.74a5.18 5.18 0 01.74-.45c.2-.07.4-.12.52-.12-.07.2-.07.3-.07.45-.12.12-.26.23-.3.37-.2.38-.33.75-.45 1.06-.07.18-.07.37-.07.51.14.12.26.26.37.37h.52l.94-1.7a3.43 3.43 0 011.26-.93c.26.06.44.1.63.1-.07.08-.07.15-.07.22-.12.05-.19.05-.26.05-.23.44-.49.81-.67 1.19-.07.07-.15.07-.15.07a3.39 3.39 0 01-.18.63c-.05.07-.12.12-.19.12l-2.43 3.76-.4.96a.48.48 0 00-.23.19l-.2.86c-.06.07-.13.07-.13.07-.05.12-.05.26-.05.33a33.1 33.1 0 00-.89 1.8c-.07.21-.07.4-.07.52-.11.11-.18.25-.25.3-.05.19-.05.33-.05.44-.14.2-.19.38-.26.52-.07.19-.07.3-.07.44-.05.2-.12.36-.19.54a16.09 16.09 0 01-.37 1.03c.07.3.14.63.14.94.05.11.12.18.19.25h.6c.26-.7.45-1.33.64-1.96.37-.68.77-1.38 1.07-2.01.19-.24.3-.42.44-.61.12-.33.26-.58.38-.82.12-.07.19-.14.26-.19.04-.18.11-.4.18-.58.05-.05.12-.05.12-.05.07-.19.14-.37.19-.56.19-.14.37-.26.51-.4a1.9 1.9 0 00.24-.56c.26-.3.51-.56.7-.82 1.12-1.63 2.27-3.25 3.4-4.84.06-.11.06-.23.06-.3.19-.26.37-.52.56-.7.07-.12.07-.19.07-.24.37-.58.75-1.07 1.05-1.59.19-.11.33-.23.45-.37.37-.63.7-1.24 1-1.82a71.71 71.71 0 001.83-2.18c.19-.12.37-.23.51-.37.24-.3.42-.63.63-.87-.07-.32-.07-.63-.07-.95zm-32.97 4.14h.42c.04-.2.04-.33.04-.45a.97.97 0 00-.18-.3l-.28-.07c-.96-.28-1.94-.52-2.86-.75-.82-.05-1.63-.12-2.38-.12-2.01-.07-4.03-.07-5.97-.07-.32.07-.58.07-.81.07v-.44a7.38 7.38 0 00.23-1.05c.07-.7.07-1.27.07-1.9a.78.78 0 01-.12-.37c-.44.07-.89.07-1.26.07-.12.11-.26.18-.3.23-.15.07-.26.07-.33.07-.07.12-.12.19-.19.26-.12.05-.26.05-.3.05a2.1 2.1 0 01-.59.32c0 .05-.02.07-.05.1-.04.07-.09.11-.14.16-.18.05-.3.05-.42.12h-.63c-.07-.07-.07-.19-.07-.3.12-.64.26-1.22.38-1.78-.07-.05-.07-.12-.07-.19-.12-.12-.24-.26-.3-.3-.13-.07-.27-.07-.31-.07-.19.07-.4.07-.59.07-.42.25-.8.44-1.19.63a.95.95 0 01-.19.3c-.11.07-.23.12-.3.19-.03.02-.03.02-.03.04a3.57 3.57 0 00-.42.7 6.74 6.74 0 01-1.07.78c-.38.49-.68.93-1 1.38-.24.18-.43.37-.61.49-.96.56-1.9 1.14-2.83 1.68a74.27 74.27 0 01-2.46 1.64c-.33.3-.63.63-.96.87l-.6.37c-.08.14-.08.26-.08.33-.18.11-.32.25-.44.3-.19.19-.38.37-.49.59-.19.11-.4.23-.59.37a.96.96 0 01-.18.3c-.12.07-.19.12-.24.12-.07-.05-.14-.12-.18-.12v-.49c.49-.7 1-1.33 1.42-1.96l2.08-3.37 1.2-1.2c.32-.44.56-.81.81-1.18l2.08-2.46c.2-.12.31-.26.45-.38.05-.18.12-.3.19-.44a.49.49 0 00.23-.19c.26-.3.45-.63.63-.86.56-.63 1.15-1.26 1.64-1.9.33-.07.63-.11.89-.18.05-.07.05-.12.05-.12l.49-.07c.37-.05.72-.1 1.1-.12.11-.07.18-.14.23-.14.44-.07.89-.11 1.33-.18.42-.15.82-.26 1.2-.36.11-.02.25-.04.37-.09 3.27-.49 6.52-1 9.73-1.45.14-.05.2-.12.26-.12 1.37-.11 2.76-.18 4.09-.25a6.05 6.05 0 00.4-.38c.07-.04.11-.1.16-.11.26-.33.44-.64.63-.94-.07-.21-.07-.4-.07-.52l-.49-.49h-1.08c-.07.05-.11.12-.18.12-.3.07-.63.07-.94.07a4.76 4.76 0 01-.96.23c-2.31.26-4.63.52-6.9.7a8.96 8.96 0 01-.63.26c-1.5.28-2.97.54-4.4.78-.09 0-.16.02-.25.04-.07.05-.07.12-.07.12-.24.07-.5.07-.75.07a2.1 2.1 0 01-.5.23h-.88c-.07-.11-.07-.23-.07-.37.26-.24.44-.5.63-.75l.56-.37c.07-.12.14-.2.2-.26l.76-.38c.05-.11.05-.18.05-.25.14-.12.19-.24.26-.3.07-.24.07-.48.07-.66v-.05c-.07-.12-.14-.23-.14-.3a5.78 5.78 0 00-.5-.33 6.68 6.68 0 01-.44-.6h-.5c-.32.23-.62.41-.88.6l-1.26 1.26c-.05.07-.1.12-.14.2-1.03 1.11-2.04 2.26-3 3.33a2.26 2.26 0 01-.18.43c-.14.14-.26.2-.33.25l-1.05.2c-.14.13-.26.18-.38.25-.25.07-.51.07-.77.07a2.6 2.6 0 01-.63.23c-.6.14-1.24.26-1.87.4-.7.23-1.38.42-2.08.6l-.12.15c-.44.12-.89.26-1.26.3a9.26 9.26 0 01-1.08.45c-.23.07-.42.07-.63.07-.05.04-.05.11-.05.11-.63.19-1.26.38-1.82.52-.12.12-.26.19-.33.23l-.6.19c-.26.19-.52.33-.7.44l-1.39.38a8.61 8.61 0 00-.74.58c-.45.24-.9.42-1.27.61-.11.07-.26.07-.37.07a3.56 3.56 0 00-.33.52c.07.11.14.18.19.23.82.07 1.59.14 2.34.19.19-.05.37-.05.49-.05.14-.14.26-.19.33-.26.25-.07.44-.11.63-.18.56-.26 1.05-.52 1.56-.75.57-.19 1.06-.38 1.57-.52l.12-.11.96-.2a5.59 5.59 0 01.93-.44c1.31-.44 2.57-.88 3.84-1.26l1.38-.19c.07-.07.11-.11.18-.11h.57c.07.11.14.23.14.37-.26.3-.45.63-.64.87-.18.14-.37.25-.51.4-.19.18-.3.37-.45.56a3.02 3.02 0 00-.49.37c-.18.19-.3.37-.44.56-.19.12-.3.26-.44.38-.05.14-.05.18-.05.25a2.38 2.38 0 00-.44.38 2.31 2.31 0 00-.33.56.47.47 0 00-.3.14c-.08.19-.12.3-.2.42-.18.21-.37.4-.55.51-.07.2-.07.3-.07.45-.45.49-.82 1-1.2 1.45-.07.19-.11.37-.18.49-.33.42-.57.8-.82 1.17-.12.07-.19.14-.26.19-.05.14-.05.25-.05.32l-.58 1.2a.48.48 0 00-.23.18l-.4.56-.56.38a.73.73 0 01-.2.26c-.3.25-.62.44-.93.63-.25.3-.44.63-.63.93-.26.07-.49.12-.75.12.07-.19.07-.37.07-.49.24-.37.42-.75.61-1.07l.45-.5.37-.77c.19-.11.33-.23.44-.37l.2-.56c.18-.12.32-.26.43-.3.2-.33.3-.57.45-.83.3-.32.56-.63.82-.93a1.43 1.43 0 01.18-.42c.2-.14.3-.26.45-.38.3-.4.56-.77.82-1.07v-.56c-.45-.33-.82-.64-1.22-.9h-.37c-.38.45-.75.9-1.13 1.32-.07.2-.11.32-.19.44-.11.07-.18.14-.25.19-.05.14-.05.19-.05.26-.14.07-.2.11-.26.18-.14.26-.25.52-.37.75-.14.07-.19.14-.26.19-.07.12-.07.23-.07.3a1.16 1.16 0 00-.25.2c-.05.1-.05.18-.05.25-.19.19-.38.37-.56.49-.07.14-.07.26-.07.33a.73.73 0 00-.26.18c-.07.12-.07.2-.07.24-.19.14-.3.25-.42.4-.14.3-.19.6-.26.93a7.31 7.31 0 00-.44.82c-.3.12-.63.26-.94.37-.07.12-.14.2-.19.26-.37.23-.77.5-1.14.68l-.87 1.07c-.18-.07-.32-.07-.44-.07.07-.3.07-.56.07-.81.23-.38.42-.75.6-1.13.22-.18.4-.37.6-.56.04-.14.04-.26.04-.37.37-.52.77-.96 1.07-1.38.07-.26.12-.44.19-.63.12-.07.19-.14.26-.2.12-.25.26-.5.37-.76.2-.19.3-.38.45-.5.04-.16.11-.3.18-.41.12-.07.2-.12.26-.2.12-.18.23-.37.38-.55.18-.19.37-.38.56-.52-.07-.23-.07-.44-.07-.63-.05-.12-.12-.23-.2-.37-.18-.05-.3-.12-.44-.2-.23.08-.49.08-.67.08-.14.07-.26.12-.33.19-.05.18-.12.3-.19.44-.3.26-.63.5-.86.68-.07.14-.07.18-.07.25-.3.33-.63.64-.9.94-.04.14-.04.26-.04.3a.8.8 0 00-.26.2c-.11.25-.25.44-.37.62l-.63.64c-.33.49-.63.93-.9 1.38-.22.25-.43.49-.62.67-.05.15-.05.2-.05.26-.19.26-.33.52-.44.7a8.05 8.05 0 00-.26.82c-.19.23-.3.42-.45.6l-.81 1.65c-.19.07-.3.14-.42.14-.45.37-.9.67-1.34 1-.07.05-.07.12-.07.19a7.43 7.43 0 01-.56.63c-.16.16-.33.28-.49.4l-.07.02a.435.435 0 01-.12-.11c.05-.45.12-.9.2-1.31.48-.7 1-1.39 1.44-2.02.05-.14.05-.25.05-.32.14-.12.19-.26.26-.3.06-.15.06-.27.06-.34.64-.74 1.24-1.5 1.88-2.24a2.54 2.54 0 01.58-.44c.12-.2.23-.33.37-.45-.07-.12-.07-.19-.07-.26a2.86 2.86 0 00-.56-.25h-1.14a3 3 0 01-.75.32c-.12.2-.26.38-.37.57-.12.07-.2.11-.26.18a7.27 7.27 0 01-.38.75l-.56.59a34.89 34.89 0 01-.56.89l-.89 1.42c-.56.3-1.07.63-1.57.9-.3.1-.63.22-.93.36-.19.2-.37.31-.52.45l-.35.14-.1.05a42 42 0 01-1.68 1.38c-.25.04-.51.04-.7.04v-.6c.07-.21.14-.4.2-.52.32-.44.58-.89.8-1.3a47.17 47.17 0 001.48-1.7c.24-.25.45-.5.68-.76.12-.26.23-.45.38-.64l.56-.37c.11-.19.25-.37.37-.56.12-.07.19-.07.26-.07.56-.52 1.12-1 1.64-1.52l.37-.14c.02-.03.05-.03.05-.05.51-.37.95-.75 1.4-1.05l.49-.19c.12-.14.26-.26.33-.33.19-.04.37-.11.49-.16.11-.12.26-.19.3-.26a4.23 4.23 0 00.59-.19c.04-.04.04-.11.04-.11.38-.19.78-.3 1.08-.45l.37.19c.07.51.07.94.07 1.36.26-.05.45-.05.64-.05.11-.75.23-1.43.3-2.13.14-.19.19-.37.26-.49-.07-.19-.07-.37-.07-.52-.19-.18-.38-.3-.5-.44h-1.19c-.81.44-1.63.89-2.38 1.26-.77.5-1.52.96-2.27 1.43-.82.47-1.61.96-2.39 1.45l-1.87 1.45c-.82.65-1.63 1.29-2.48 1.94-.56.7-1.12 1.38-1.63 2.08a.48.48 0 00-.24.19c-.44.68-.89 1.38-1.26 2.01-.07.12-.07.23-.07.3-.12.12-.19.26-.26.33v.75c.26.3.45.63.63.86.26.2.45.4.64.59.07.19.14.3.18.42.19.19.33.4.45.58h.37c.26-.14.52-.18.75-.25.21-.14.33-.26.44-.38.07-.18.14-.32.2-.44.18-.07.32-.12.44-.19a40.1 40.1 0 011.84-1.35c.03-.03.03-.03.05-.03a.85.85 0 01.19-.32c.56-.45 1.05-.87 1.56-1.24.26.04.5.04.75.04a3.37 3.37 0 01-.18.64c-.2.25-.31.51-.45.74-.05.26-.05.45-.05.64.05.18.12.32.12.44.38.51.75.94 1.08 1.38.3.07.56.07.81.07.12-.07.2-.14.24-.19.05-.07.1-.11.14-.19l1.5-2.2.44-.44c.07-.19.12-.32.19-.44.14-.12.25-.26.32-.3h.61c.4.56.77 1.05 1.08 1.56h.51c.24-.26.5-.51.75-.7.3-.37.56-.75.82-1.05.26-.2.49-.33.75-.45.37-.32.75-.56 1.07-.82h.38c.07.12.07.26.07.38-.07.19-.14.37-.2.49-.2.2-.39.33-.58.44v.82c.15.26.26.52.38.7a.46.46 0 01.26.19c.14-.07.25-.07.37-.07a6.07 6.07 0 00.63-.75c.19-.32.33-.56.45-.82.18-.18.3-.37.44-.56.19-.14.37-.25.49-.37l1.7-1.7c.26-.08.45-.08.64-.08-.07.19-.07.4-.07.59-.12.23-.26.49-.3.68-.45.56-.82 1.14-1.2 1.7-.07.3-.07.56-.07.82l.82 1.38a.7.7 0 01.26.19c.04-.07.11-.07.19-.07.11-.12.23-.26.3-.3.12-.38.26-.78.38-1.08.25-.07.5-.07.7-.07.04.07.11.14.11.14a.9.9 0 00.33.05l.42-.43.37-.7c.15-.07.26-.11.33-.18.9-1.01 1.76-2.02 2.65-2.95.3-.33.63-.59.93-.82a3.1 3.1 0 00.44-.56c.26-.14.45-.26.64-.33a.72.72 0 01.18-.26c.2-.11.3-.18.45-.23.12-.19.23-.33.37-.44.12-.07.19-.07.26-.07.3-.26.56-.45.8-.63.06-.12.14-.26.2-.3l.87-.2c-.07.2-.07.3-.07.45-.12.11-.19.23-.23.3-.07.12-.07.26-.07.3l-.26.2a1.32 1.32 0 01-.19.44c-.11.07-.26.14-.3.19l-1.08 1.82c-.07.33-.11.56-.18.82-.12.14-.26.25-.38.37a13.99 13.99 0 00-.63 1.52c.26.3.51.63.75.94.26.44.44.89.63 1.33.19.12.37.23.51.3 1.01-.11 2.02-.18 2.95-.25.19-.05.3-.12.44-.19.68-.63 1.38-1.2 2.06-1.75l1.22-.57a.18.18 0 01.1-.09c.04-.07.09-.12.13-.16.33-.12.56-.26.82-.38a4.07 4.07 0 01.38-.44c.32-.19.63-.3.89-.44a61.64 61.64 0 011.63-1.1c.7-.5 1.43-.94 2.13-1.4.14-.57.26-1.15.37-1.64-.04-.45-.04-.9-.04-1.27-.14-.11-.2-.19-.26-.25.07-.12.07-.24.07-.38 2.06-.05 4.07-.05 6.08-.05.82.05 1.57.05 2.34.05.94-.05 1.87-.05 2.83-.05.37.05.68.12 1 .2l.34-.01zm-14.6.86a7.88 7.88 0 01-.25.63v.63a6.34 6.34 0 00-.38.9c-.07.04-.19.18-.32.3a87.72 87.72 0 00-3.02 1.38l-.14.11-1.62 1.15c-.37.19-.81.38-1.26.63-.23 0-.49.07-.82.12-.04 0-.11-.05-.23-.12a2.36 2.36 0 00-.33-.56c.07-.33.14-.7.19-1.07l.19-.38c.07-.33.14-.63.18-.93l.14-.15c.31-.86.64-1.75.94-2.64 0 0 .07 0 .12-.05.07-.14.14-.25.19-.44.14-.14.25-.33.44-.51.14-.24.26-.54.37-.85.07-.07.14-.18.26-.32.14-.26.26-.5.37-.82l.26-.19c.12-.26.26-.49.38-.75.07-.04.11-.11.23-.16 0-.02 0-.02.02-.02.2-.26.38-.52.56-.82.26 0 .52 0 .75.07 0 .11.07.23.14.42v1c-.37.21-.77.4-1.14.64-.05.07-.12.18-.24.32l-.09.05a15 15 0 00-.54.4 1.64 1.64 0 00-.37.42c0 .3-.07.6-.14.93 0 .05.07.2.14.3 0 0 .04 0 .11.08.07 0 .12-.07.26-.14.17 0 .35-.03.54-.05l1.22-.19c.89 0 1.75-.04 2.64-.11.12 0 .26 0 .37-.03 0 .26-.07.52-.12.82zm.61-2.66a3.8 3.8 0 00-.67.23h-.83c-.06 0-.11 0-.18-.05 0-.14-.07-.26-.14-.37.3-.21.63-.4.96-.61l.3-.21h.52c0 .05.04.12.11.19 0 .25 0 .49-.07.81zm-50.67 3.67c.09-.1.16-.17.25-.24v-.58h-1.21c-.05.14-.12.19-.12.26-.75.51-1.45.93-2.13 1.38-.07.07-.07.14-.07.18-.75.57-1.45 1.15-2.13 1.71-.14.19-.25.37-.37.5-.52.43-1 .88-1.52 1.25-.07.12-.07.26-.07.33l-.6.61-.52.19-.38.58a1.08 1.08 0 00-.32.19c-.05.12-.05.23-.05.3-.19.12-.38.26-.56.33-.07-.4-.07-.77-.07-1.14a1.62 1.62 0 00.11-.57c.26-.37.45-.7.63-1l2.02-1.64c.18-.19.32-.37.44-.56.3-.19.63-.38.94-.52.14-.18.25-.37.37-.49.51-.26 1-.51 1.52-.75.07-.07.07-.14.07-.14.19-.04.37-.11.56-.18l.82-.82c.37-.3.75-.63 1.12-.87.19-.07.38-.14.56-.18l.33-.33c.12-.05.23-.07.38-.1.04-.02.11-.02.18-.02.24-.23.5-.44.73-.68l.72-.67v-.45c-.07-.07-.14-.12-.14-.19-.04-.51-.04-.93-.04-1.38.23-.44.49-.89.74-1.33a7.6 7.6 0 01-.37-.56h-.63l-.28.14-.91.4c-.14.04-.26.11-.38.16-.14.12-.19.19-.25.24a7.8 7.8 0 01-1.52.77c-.2.18-.38.37-.57.49-.25.18-.49.32-.67.44-.33.26-.64.5-.9.75l-.44.19c-.44.32-.82.56-1.2.81-.04.15-.1.2-.18.26-.07.07-.11.07-.19.07a41.85 41.85 0 00-2.12 1.85c-.07.14-.14.26-.2.33-.32.23-.62.49-.88.75-.07.06-.07.11-.07.18-.23.12-.5.26-.68.3-.07-.04-.14-.04-.18-.04v-.33c.11-.11.18-.23.23-.3.14-.33.2-.63.26-.89.25-.3.51-.63.7-.94.12-.3.26-.6.37-.9.07-.08.12-.08.12-.08.33-.44.56-.89.82-1.26.19-.19.33-.3.44-.45.07-.18.12-.3.12-.42.4-.58.7-1 1-1.52.15-.07.2-.11.26-.18.07-.12.07-.26.07-.3.12-.2.26-.4.3-.52.2-.19.33-.3.45-.45l.19-.44c.63-.75 1.26-1.5 1.82-2.2l.82-.8c.19-.32.3-.58.44-.81.66-.87 1.34-1.66 2.02-2.46l.04-.07c.3-.23.61-.49.87-.72l.2-.21v-.33a1.65 1.65 0 01-.2-.47c-.03-.02-.03-.07-.05-.1l.05-.11c.11-.4.2-.8.28-1.2l.25-.32c.05-.12.05-.19.05-.23.07-.07.14-.07.14-.07a5.22 5.22 0 01.19-.57c-.07-.07-.14-.14-.14-.18-.24-.07-.42-.07-.63-.07-.05.02-.1.07-.14.09l-.35.16c-.24.21-.4.4-.56.57l-.07.07c-.07.11-.07.18-.07.23a5.47 5.47 0 01-.57.51 5.97 5.97 0 00-.63.75c-.04.12-.04.26-.04.3-.33.26-.63.45-.9.64-.11.26-.25.44-.37.63-.11.07-.18.14-.25.19-.12.25-.26.44-.38.63-.3.26-.63.51-.89.75-.04.14-.04.25-.04.32-.45.45-.82.87-1.2 1.31-.07.14-.07.2-.07.26a1.24 1.24 0 00-.25.19c-.05.11-.05.25-.05.33a.86.86 0 00-.33.18c-.11.12-.19.24-.26.3-.04.12-.04.2-.04.26-.19.24-.38.5-.56.68-.07.14-.07.19-.07.26a.79.79 0 00-.26.19c-.07.18-.12.33-.19.44l-1.07 1.45c-.12.3-.24.63-.38.94-.11.07-.18.11-.25.18a1.57 1.57 0 01-.2.45l-.55.37c-.12-.07-.2-.11-.26-.11l-.38-.59-.37-.19-.63.2c-.5.32-.94.5-1.38.76-.45.5-.87 1-1.31 1.5-.38.33-.75.56-1.08.82-.07.19-.11.33-.18.44-.2.2-.38.38-.57.5-.14.18-.25.37-.37.48-.19.2-.37.31-.52.45-.18.3-.3.63-.44.93a.67.67 0 00-.23.2c-.07.13-.07.25-.07.32-.05.05-.1.1-.17.14-.18.21-.4.4-.58.6-.07.2-.14.31-.19.45-.26.3-.51.56-.77.82-.23.5-.42 1-.6 1.43-.33.44-.6.89-.83 1.26a45.73 45.73 0 00-.88 2.01c.07.38.11.75.11 1.08a.7.7 0 01.19.19l.4.74c.23.2.42.38.6.57h.45c.19-.2.37-.38.51-.5.19-.14.3-.18.45-.25h.42v.56c-.05.14-.12.19-.19.26.07.11.07.25.07.37.07.07.12.07.12.07.26-.02.49-.05.72-.05.75-.04 1.45-.1 2.18-.1.19-.1.37-.22.49-.3.07-.11.07-.18.07-.25.07-.05.14-.05.14-.05.19-.26.3-.51.42-.77.07-.12.07-.23.07-.3.12-.15.19-.26.26-.33.05-.19.12-.38.12-.5.14-.11.18-.25.25-.32.12-.3.26-.56.38-.8.11-.07.18-.14.25-.14.19.07.38.14.5.14a7.58 7.58 0 00-.24 1.2c-.14.18-.26.3-.33.42.07.7.07 1.4.07 2.08.12.19.26.33.38.44.25.19.49.3.75.45a6.71 6.71 0 001.07.23c.12.14.26.26.38.33.07.07.11.07.11.07.14-.14.26-.26.38-.33.14-.26.25-.5.4-.75a.67.67 0 00.23-.19c.89-1.19 1.7-2.33 2.52-3.46.07-.11.07-.18.07-.25.19-.24.38-.43.57-.64a.96.96 0 00.3-.18c.44-.57.89-1.06 1.33-1.57.3-.3.61-.56.94-.82a14.2 14.2 0 01.93-1.05c.26-.19.52-.33.75-.45.45-.32.82-.63 1.2-.95.25-.12.51-.24.77-.38l.19-.18zm-5.6-1c.38-.38.82-.76 1.25-1.13.14-.07.25-.12.44-.19.14-.16.26-.35.44-.54.26-.18.56-.44.9-.7a40.87 40.87 0 002.24-1.45c.1 0 .2 0 .33.03.11 0 .23.02.37.04v1.12l-.37.21a8.3 8.3 0 00-.45.24 8.54 8.54 0 01-.82.75c-.11.07-.25.14-.37.18 0 0 0 .07-.07.12-.19.07-.38.19-.56.3 0 .07 0 .15-.07.2-.24.13-.5.25-.82.44a1.63 1.63 0 01-.42.37c-.26.14-.59.26-.9.45l-.48.51a30.43 30.43 0 00-1 .6c0 .08-.08.15-.15.27a.98.98 0 01-.3.18l-.38.56H85c0-.18 0-.37-.07-.56.56-.63 1.12-1.3 1.7-2zm-5.84-1.86c-.07.05-.14.2-.26.3 0 .08 0 .13-.07.24a.68.68 0 01-.23.19c0 .07 0 .19-.07.3l-.45.45c-.07.14-.11.32-.18.51-.2.24-.38.5-.56.75 0 .07 0 .19-.07.3-.12.15-.26.33-.45.52-.56.94-1.12 1.94-1.68 2.95-.14.14-.26.32-.38.51-.51.3-1 .68-1.52 1.05a2.55 2.55 0 00-.54.21c-.07.05-.14.07-.2.12 0-.37.06-.82.11-1.26.05-.05.07-.12.1-.17.46-.84.95-1.7 1.42-2.6 0-.13 0-.25.05-.37.26-.32.58-.63.89-.95l.37-.75c.07-.07.14-.12.26-.2 0-.06 0-.1.07-.25.12-.12.23-.23.42-.37l.44-.63c.14-.12.33-.24.52-.42.05-.05.12-.2.19-.31.04-.07.11-.12.25-.19 0-.07 0-.11.05-.25.33-.26.7-.5 1.08-.82.07 0 .18-.05.3-.12.07.07.14.12.19.26 0 .3 0 .63-.05 1z"/><path d="M165.6 100.28c.3-.37.56-.74.8-1.05.2-.14.4-.26.51-.37.19-.2.3-.38.44-.59.2-.12.3-.23.45-.37.11-.19.23-.38.37-.56l.56-.38.38-.56c.51-.42.93-.86 1.38-1.24.37-.3.75-.56 1.07-.82.12-.18.26-.37.38-.49.56-.58 1.12-1.14 1.7-1.63.2-.07.31-.14.43-.2.07-.13.14-.18.18-.25.14-.07.26-.12.33-.19.19-.18.3-.37.44-.51.03 0 .03-.02.05-.05l3.28-2.45c.07-.12.11-.19.18-.26.82-.5 1.57-1 2.34-1.45a.48.48 0 01.19-.23c.23-.2.49-.38.75-.52.11-.07.25-.07.3-.07a5.6 5.6 0 00.52-.56c.3-.12.63-.23.86-.37l.33-.26a4.06 4.06 0 00.68-.19c.14-.04.19-.11.25-.19l.38-.63a.49.49 0 00-.19-.23c-.25-.07-.49-.07-.75-.07-.44.07-.89.07-1.3.07-.15.12-.26.19-.33.23-.5.19-1.01.4-1.5.52-.4.3-.77.56-1.15.82a.73.73 0 01-.18.25c-.12.05-.2.05-.26.05-.05.07-.05.14-.05.14a1.6 1.6 0 00-.44.19c-.38.3-.75.63-1.08.86a17.02 17.02 0 01-1.56.82 2.42 2.42 0 01-.38.45c-.11.07-.25.07-.32.07l-.57.56c-.04.07-.11.07-.18.07-.3.3-.64.6-.94.86l-.75.38c-.18.18-.37.37-.51.58a95.67 95.67 0 01-3.28 2.62c-.11.19-.23.4-.37.51-.19.12-.3.2-.42.26a5.68 5.68 0 00-.33.5c-.26.18-.44.32-.63.44-.05.11-.12.25-.19.3-.11.07-.19.07-.26.07a1.08 1.08 0 01-.18.33c-.24.23-.5.42-.75.6-.07.2-.12.3-.19.43-.19.14-.3.25-.44.32-.12.2-.26.3-.38.42-.11.07-.25.14-.3.21l-.45.5c-.32.44-.56.88-.81 1.26l-.45.26-.63.6a2.17 2.17 0 01-.19.52c-.18.07-.3.07-.44.07a41.08 41.08 0 00.44-2.83l.14-.14c.05-.45.12-.87.2-1.24l.22-.3.2-.5.18-1.07a5.68 5.68 0 00.33-.94c.07-.07.11-.07.11-.07.33-.81.56-1.52.82-2.26.14-.12.19-.26.26-.3.07-.15.07-.27.07-.34.19-.23.3-.49.42-.74.21-.38.33-.75.44-1.13.07-.19.07-.33.07-.44.07-.07.12-.07.12-.07.07-.19.14-.38.19-.56.07-.07.14-.07.14-.07.05-.24.12-.42.19-.64a129.16 129.16 0 001.56-3.25c.2-.18.3-.37.45-.51.3-.5.56-1 .82-1.5.44-.44.81-.89 1.19-1.33v-.56c-.14-.38-.19-.75-.26-1.12-.12-.14-.26-.26-.3-.38-.2-.07-.38-.14-.59-.14-.3-.37-.56-.68-.8-1h-.44c-.14.07-.26.14-.37.14-.26.23-.45.42-.63.6-.07.14-.07.26-.07.33-.3.44-.64.89-.9 1.26-.04.12-.04.2-.04.24-.14.14-.19.25-.26.32-.11.38-.25.68-.37 1.01-.14.12-.19.19-.26.26-.11.3-.26.6-.37.93-.07.07-.12.07-.19.07-.07.19-.12.3-.12.42-.32.52-.63.96-.89 1.4-.07.2-.07.38-.07.5-.11.11-.18.25-.25.3-.12.4-.24.77-.38 1.15-.3.63-.63 1.26-.86 1.82a.71.71 0 00-.19.19c-.07.26-.14.44-.14.63-.23.68-.5 1.38-.68 2.01-.14.12-.19.24-.26.38-.11.49-.25.93-.37 1.38-.14.07-.19.11-.26.11-.07.2-.07.38-.07.56a3.72 3.72 0 00-.23.52c-.07.19-.07.3-.07.44-.12.2-.19.38-.26.5-.05.18-.05.32-.05.44a5.3 5.3 0 00-.44.63l-.19.8c-.07.07-.14.11-.14.11-.04.33-.11.56-.19.82l-.25.45a26.41 26.41 0 01-.38 1.63c-.04.07-.11.12-.11.12-.07.26-.12.51-.2.77-.06.05-.1.05-.1.05a11.3 11.3 0 00-.33 1.52c-.07.04-.12.04-.12.04-.07.26-.07.45-.07.64l-.16.25a.47.47 0 01-.1.2c-.05.37-.05.74-.05 1.07-.14.25-.18.44-.25.63-.07.3-.07.6-.07.93-.07.07-.12.07-.12.07-.07.57-.14 1.06-.19 1.57.05.26.12.5.12.75.23.2.44.44.65.6l.1.1c.26.05.44.12.63.19.26.19.44.37.63.49l.07.07c.12-.07.26-.14.3-.19.33-.33.57-.63.82-.96.14-.23.2-.49.26-.75.19-.18.37-.37.56-.49.52-.82 1-1.56 1.45-2.34.12-.11.26-.18.3-.23.08-.14.15-.26.2-.4.14-.04.18-.11.25-.11.33-.45.56-.82.82-1.2.33-.37.63-.7.94-1 .32-.45.58-.9.81-1.26.2-.19.38-.3.59-.45zm-65.1-3.88c.11-.23.23-.49.37-.72.11-.07.18-.15.23-.2.07-.2.14-.32.19-.44.33-.32.58-.63.82-.96.18-.3.32-.6.44-.93.38-.45.75-.82 1.08-1.2.11-.25.25-.48.37-.74.3-.38.63-.7.89-1 .05-.15.05-.2.05-.26l.28-.33c.23-.24.42-.47.6-.68.07-.19.12-.3.2-.45.37-.49.74-.93 1.07-1.38.04-.25.11-.44.18-.63.05-.04.12-.04.12-.04.07-.14.07-.19.07-.26.19-.14.3-.26.44-.33.31-.37.57-.74.82-1.12a.67.67 0 00.24-.19l.51-.65.3-.42 1.08-.82c.07-.12.07-.19.07-.24.12-.14.19-.25.24-.32-.05-.12-.12-.26-.12-.38-.12-.12-.26-.19-.3-.26l-.22-.93c-.18-.12-.3-.26-.42-.3a5.05 5.05 0 01-.63.42c-.12.07-.2.14-.33.18-.86 1.15-1.75 2.2-2.64 3.28a9.5 9.5 0 00-.3.18l-.82 1.2-.17.11-.32.26a4.31 4.31 0 00-.45.77c-.19.19-.32.38-.44.5l-.38.74c-.37.38-.74.77-1.07 1.15l-.82 1.38a.68.68 0 00-.23.19c-.33.44-.59.81-.82 1.19-.07.07-.14.07-.14.07-.05.11-.05.18-.05.23l-.33.19a22.86 22.86 0 00-.88 1.4c-.05.19-.05.3-.05.42a7.45 7.45 0 00-.63.96c-.12.05-.19.12-.26.19-.12.12-.19.26-.26.3a4.8 4.8 0 01-.37.87 2.18 2.18 0 00-.3.37c-.2.3-.33.63-.45.9-.07.04-.12.04-.12.04l-1.24 1.82c-.11.33-.25.63-.37.96-.14.05-.19.12-.26.19-.07.23-.12.49-.19.75-.07.07-.11.07-.11.07-.07.11-.07.23-.07.3-.33.44-.63.89-.9 1.26-.04.24-.1.5-.18.75l-.4.59c-.23.35-.46.65-.65.98-.07.19-.07.33-.07.44a1.37 1.37 0 00-.19.24c-.02.02-.04.07-.07.07-.11.58-.25 1.07-.3 1.59.04.04.12.11.12.18.11.42.18.82.25 1.2.3.14.63.3.91.46l.14.1c.21.11.33.25.45.37.26-.07.44-.12.63-.19l.19-.32c.18-.19.37-.3.51-.42.19-.14.38-.26.56-.33.07-.12.12-.26.2-.3-.08-.15-.13-.2-.13-.26-.14-.07-.25-.07-.4-.07-.04.07-.11.07-.11.07-.19-.12-.37-.26-.5-.3v-.45c.24-.63.5-1.26.76-1.9.07-.07.11-.07.11-.07l.2-.6c.43-.82.86-1.64 1.23-2.46.07-.07.12-.07.12-.07.07-.12.07-.19.07-.26.07-.04.11-.04.11-.04.33-.7.64-1.38.96-2.01a56.56 56.56 0 012.01-3.47c.12-.06.2-.1.26-.18z"/></g></svg>