<svg xmlns="http://www.w3.org/2000/svg" viewBox="0 0 192.76 192.76"><g fill-rule="evenodd" clip-rule="evenodd"><path fill="#fff" d="M0 0h192.76v192.76H0V0z"/><path d="M43.28 66.25c2.5-.03 5.82.04 7.61 2.02 1.05 1.08 1.14 2.8.82 4.27-.49 1.91-2.31 2.66-3.39 4-.16 12.56-10.58 21.61-19.3 28.38-4.88 3.9-12.99 6.94-19.7 3.84-1.78-.88-2.83-2.8-3.25-4.78-.23-1.66-.13-3.16-.23-4.79 1.96-9.08 6.61-14.09 13.02-20.6 4.53-3.8 8.43-7.06 13.7-9.24 3.5-1.3 7.07-3.03 10.72-3.1z"/><path d="M62.8 71.79c.43-.04.89.13 1.18.42l.13.23-.07.65c-6.83 7.78-11.94 15.26-17.35 23.3-.52 1.2-1.27 2.64-.68 3.81.33.65.85 1.01 1.07 1.53v.33c-3.35 2.05-8.3 1.95-12.46 2.67-.56-.04-.91-.13-1.14-.5-.1-.19-.13-.29-.13-.32 9.18-7.42 14.9-18.1 21.19-27.66.06-.92.45-1.44 1.04-1.96 2.34-.94 4.62-2.34 7.23-2.5z"/><path d="M80.94 71.79l1.4.2c.36.55.16 1.36-.16 1.85-5.83 9.24-13.74 17.05-18.36 27.4-3.71 1.18-7.13-.68-10.39 1.54a3.9 3.9 0 01-3.38-.85c-1.5-2.08-1.47-4.98-.62-7.36.91-2.54 2.74-4.23 4.07-6.31 3.87-4.27 8.43-7.69 14.58-7.49 1.1.36 2.35.85 3.32.23.82-.95 1.56-1.7 1.37-2.93-.23-.91-1.04-1.2-.91-2.18 1.27-2.12 4.17-2.35 6.5-3.45.92-.17 1.8-.4 2.58-.65z"/><path d="M43.63 71.92h1.7c.3.03.45.29.55.61 0 .1-.03.27-.1.33-3.22.88-7.55.85-9.3 3.94-.07.36.03.81.45 1 1.56.79 3.55.17 4.6 1.7 1.52 2.18.06 5.27-.86 7.36-1 1.4-1.82 2.8-2.8 4.13-4.88 4.79-9.47 9.08-16.63 9.4-.78-.09-1.36-.29-1.92-.64-1.5-2.31-.84-5.37.07-8.01.81-2.31 2.02-3.94 3.09-5.73 5.63-6.93 11.81-12.76 21.16-14.1z" fill="#fff"/><path d="M136.47 77.42l1.3.06c.03 0 .03.07.13.13v1.11c-1.4 1.53-4.13 2.93-4.36 5.27 0 .2.1.36.1.36a5.38 5.38 0 012.3 5.44c-.93 5.1-5.07 8.62-9.14 10.35-2.54.65-5.04.42-7.58.13-.81-.07-1.63-.03-2.34-.3a.93.93 0 01-.56-.55c-.2-1 .59-1.66 1.27-2.21 4.78-5.76 10.12-9.9 11.4-16.86 1.88-1.47 4.87-2.12 7.48-2.93zm19.98 1.17l1.8.06c.19.1.48.3.55.59.03.59 0 1.27-.56 1.6-6.64 5.6-10.93 11.84-14.48 19.33-.1.75-.3 1.5-.98 1.73-1.69 0-3.61 0-4.98-.85-.1-.1-.13-.23-.13-.23l.1-.88c4.5-5.63 10.97-10.35 11.59-17.97 1.7-1.95 4.59-2.3 7.1-3.38zm-10.54.16c.71 0 1.33.36 1.79.95.55.71.68 1.79.32 2.6a2.5 2.5 0 01-1.92 1.6 2.6 2.6 0 01-2.3-.82c-.72-1.04-.46-2.34.09-3.25.55-.65 1.2-.88 2.02-1.08zm-39.2 1.92c.85 0 1.83-.13 2.35.62.72.78.68 1.95.46 2.83-1.37 5.86-7.03 8.37-7.52 14.75-.23.52-.75.81-1.34.88-1.2 0-2.28.13-3.48-.17-.59-.19-.88-.87-1.07-1.46 1.3-4 4.85-6.28 5.72-10.19 0-.03-.06-.26-.16-.26-3.25 2.08-4.85 5.8-7.29 8.63-.68 1.07-.3 2.67-1.4 3.45-1.76.71-3.64.35-5.34.03-.35-.23-.45-.59-.45-1.14 2.54-3.71 6.5-6.51 7.61-10.7-.13-.17-.19-.27-.19-.33-.1-.13-.26-.13-.46-.13-3.9 3.77-5.86 7.68-8.43 11.94-1.6.98-3.84 1.17-5.76.85-.03-.03-.1-.07-.13-.16.49-.95 1.14-1.92 1.66-2.87 1.92-3.38 4.04-6.38 6.12-9.54.46-1.14-.58-2.37.26-3.25 2.5-1.34 5.63-2.93 8.79-2.8 3.29-1.82 6.51 1.6 9.44-.85.26 0 .46-.1.62-.13zm-24.47.46c1.33-.03 3.16.13 4.04 1.17.52.88 0 1.85-.3 2.47-.94.92-1.53 2.54-2.9 2.48-.64-.13-1.26-.65-1.69-.07-1.04 5.02 0 11.88-5.66 14.13-2.96 1.24-6.18-.36-9.21-.3-.33-.29-.46-.77-.26-1.26 1.27-2.35 2.54-4.98 5.04-6.61.3 0 .43-.03.66.1.84.71.13 2.34.97 3.15.36.33 1.17.56 1.73.2 1.04-.82 1.17-2.08 1.04-3.2-.85-3.6-1.2-7.77 1.89-10.24 1.33-1.01 2.9-1.76 4.65-2.02z"/><path d="M119.12 81.68c1.53 0 3.06.49 3.97 1.7 1.07 1.46.94 3.54.46 5.2-3.45 4.75-7.95 10.25-13.41 12.11-1.8.42-3.81-.36-5.02-1.33-.71-.88-1.3-2.05-.94-3.2 2.08-5.17 5.4-10.15 10.38-12.79 1.4-.71 2.87-1.53 4.56-1.69z"/><path d="M64.66 85.65l1.3.2c.5.75.04 1.82-.35 2.5-2.18 2.9-4.04 6.84-7.3 8.83a1.89 1.89 0 01-1.33-.46c-.71-1.3-.13-3.1.59-4.2 1.6-2.9 4.03-5.66 7.1-6.87zm52.83 1.3c.4-.03.65.26.98.43.65.98 0 2.15-.46 3.03-1.17 2.18-3.09 4.13-5.6 4.85-.68.03-1.27-.17-1.6-.72-.45-.88-.09-1.89.33-2.57 1.63-2.31 3.49-4.43 6.35-5.01z" fill="#fff"/><path d="M142.52 86.95c.52 0 1.24-.06 1.63.3.03.13.13.23.13.23-2.18 4.72-6.44 7.97-8.27 13.02-1.46 1.1-3.55.48-5.04.58a.97.97 0 01-.69-.58c2.12-4.3 6.15-7.33 8.04-11.92 1.24-.81 2.8-1.14 4.2-1.63z"/><path d="M160.42 88.06c1.24-.16 2.45.49 3.26 1.4.85 1.17.49 2.74-.1 3.9-2.44 2.97-5.3 4.27-8.98 5.54a.3.3 0 000 .23c.42.39 1.1.39 1.63.16 3.31-1.4 7.06-1.79 9.96.2 8.46 4.42 16.34 8.95 23.7 14.38.1.36 0 .72-.17.88-13.35-1.2-26.95-5.04-40.46-5.85-2.5-.43-5.01-.5-7.45-.88-4.43-.3-8.83-.3-13.15-.85-7.59 0-15.14-.33-22.66.1-19.1 1.89-38.5 5.04-57.1 11.62-5.13 1.98-10.21 3.87-15.42 5.82-2.25.36-3.84 1.9-5.96 1.8-.49-3.26 2.09-6.78 2.18-10.13l-2.18.52c-7.13.75-12.82 7.03-19.4 5.11-1.79-1.23-4.1-1.63-5.27-3.45-.07-.32.1-.55.16-.68 1.04-.72 2.51-1.2 3.81-1.86 5.57-1.79 11.13-2.93 16.6-4.33a302.88 302.88 0 0152.6-7.45c5.08-.13 10.1.03 15.1-.46 14.65-.45 29.27-.58 43.82 1.04 13.7.5 27.5 4.53 41.01 4.89.2-.2.23-.2.33-.36v-.23c-4.43-3.7-9.28-6.12-14.98-8.46-2.66 1.3-4.94 3.35-8.46 3.48-1.89.2-4.07-.1-5.2-1.66l-.43-.75c-1.14-2.37.16-4.88 1.33-6.5 2.9-3.98 6.84-6.9 11.88-7.17z"/><path d="M130.28 89.46c.2 0 .5 0 .65.13.56 1.63-.71 3.03-1.4 4.2-.55.72-1.07 1.14-1.53 1.72-.74.62-1.36 1.18-2.37 1.18-.13-.1-.23-.13-.26-.2.32-2.57 2.18-4.23 3.84-6.38.45-.23.68-.49 1.07-.65zm26.8 3.16l.84.06c.16.07.39.36.32.69a3.77 3.77 0 01-2.7 1.6c-.16 0-.26-.1-.36-.2-.16-.62.13-1.17.59-1.63.36-.33.88-.4 1.3-.52z" fill="#fff"/></g></svg>