<svg xmlns="http://www.w3.org/2000/svg" viewBox="0 0 192.76 192.76"><g fill-rule="evenodd" clip-rule="evenodd"><path fill="#fff" d="M0 0h192.76v192.76H0V0z"/><path d="M65 98.81L2.84 134.49V61.7l63.93-36.87v35.15l60.99-35.15v35.74l62.16-35.68V97.7l-63.94 36.87V99.4L65 134.56V98.8z"/><path d="M188.08 96.64l-60.26 34.76V96.25L66.84 131.4V97.7l121.24-69.67v68.61zM4.68 62.74l60.26-34.77v35.16l60.98-35.16v33.71L4.67 131.34v-68.6z" fill="#fff"/><path d="M10.65 165.11l5.52-16.49h2.04l-6.57 18.86H9.67L3.1 148.62h2.03l5.52 16.5zm11.9-7.16c-.26 11.04 13.67 11.3 13.67-.13 0-10.19-13.08-11.04-13.67.13zm-2.04 0c0-13.01 17.68-13.2 17.68-.13 0 13.27-17.68 13.67-17.68.13zm23.26.66v7.1h10.85v1.77H42v-18.86h12.42v1.84H43.77v6.5h9.66v1.65h-9.66zm25.04-4.67c0-3.09-3.28-5.12-6.9-3.68-2.3.8-2.89 4.08-.85 5.46 2.23 1.64 8.15 1.25 9.53 4.73 3.74 8.54-13.21 10.77-12.95 1.18h1.77c.2 4.47 4.47 5.32 7.17 4.47 1.84-.4 3.02-2.37 2.63-4.27-.66-2.37-3.03-2.63-5.33-3.22-3.48-.79-6.24-2.3-5.85-5.92.33-3.41 3.22-4.53 6.64-4.53 5.13.26 5.92 3.88 5.92 5.78H68.8zm11.3-3.48H74.2v-1.84h13.87v1.84h-6.05v17.02h-1.9v-17.02zm7.76 9.13h6.57v1.78h-6.57v-1.78zm14.32.4h7.1l-3.61-9.33-3.49 9.33zm7.76 1.64h-8.41l-2.24 5.85h-2.03l7.42-18.86h2.17l7.36 18.86h-2.04l-2.23-5.85zm8.94 4.08h9.98v1.77h-11.76v-18.66h1.77v16.89zm15.37-6.51v8.28h-2.03v-18.86h7.16c3.02 0 5.85 1.45 5.85 4.93.26 4.66-3.03 5.65-6.25 5.65h-4.73zm0-8.94v7.3H139c4.27 0 4.4-1.97 4.4-3.62 0-2.89-2.23-3.68-5.45-3.68h-3.68zm15.18-1.44h2.04v18.66h-2.04v-18.66zm20.24 16.03v-16.03h1.9v18.66h-2.1l-10.77-16.16v16.16h-1.78v-18.66h1.98l10.77 16.03zm8.8-6.24v7.1h10.78v1.77h-12.55v-18.86h12.42v1.84H178.5v6.5h9.6v1.65h-9.6z"/></g></svg>