<svg version="1.0" xmlns="http://www.w3.org/2000/svg" width="102.667" height="102.667" viewBox="0 0 77 77"><path d="M57.2 2.5C48.4 5 38.7 10.8 35.5 15.6c-5.6 8.6-3.4 12.1 10.3 16.4 10.4 3.2 15.9 6 16.9 8.6.3.9-.1 3.1-1 4.9-5.4 11.3-41.2 27.4-54 24.1-3.2-.8-2.7-3.1 2-8.5 3.6-4.3 17.5-14 23.6-16.6 4.3-1.8 5-3 1-1.4C19.5 48.7 1 62.7 1 68.3c0 4.7 3 7 9.7 7.3 21.2.9 52.6-15.1 56-28.4 1.9-7.2-2.3-11-17.9-16.1-7.1-2.4-11.8-5.4-11.8-7.6 0-3.9 11.8-13 22.4-17.3 6.2-2.5 12.1-3.1 13.8-1.4 2.1 2.1-3.9 8.9-12 13.8-3.4 2.1-4.5 2.4-5.7 1.4-1.2-1-1.5-.7-2.1 1.5-.4 1.5-.2 3.1.4 3.7 1.8 1.8 7.7 0 12.9-3.9 9-6.6 12-14.5 6.8-17.9-3.5-2.3-10-2.6-16.3-.9z"/></svg>